<svg width="369" height="98" viewBox="0 0 369 98" fill="none" xmlns="http://www.w3.org/2000/svg">
<g id="Movieligent-logo">
<path id="Movieligent" d="M41.272 37.2458V75.7178H38.752V42.5098L23.968 75.7178H21.952L7.112 42.5098V75.7178H4.592V37.2458H7.28L22.96 72.4138L38.64 37.2458H41.272ZM63.9135 76.1658C61.0762 76.1658 58.5188 75.5312 56.2415 74.2618C53.9642 72.9925 52.1722 71.1818 50.8655 68.8298C49.5962 66.4405 48.9615 63.6592 48.9615 60.4858C48.9615 57.3498 49.6148 54.6058 50.9215 52.2538C52.2282 49.8645 54.0202 48.0538 56.2975 46.8218C58.6122 45.5525 61.1882 44.9178 64.0255 44.9178C66.8628 44.9178 69.4202 45.5525 71.6975 46.8218C73.9748 48.0538 75.7482 49.8458 77.0175 52.1978C78.3242 54.5498 78.9775 57.3125 78.9775 60.4858C78.9775 63.6592 78.3242 66.4405 77.0175 68.8298C75.7108 71.1818 73.9002 72.9925 71.5855 74.2618C69.3082 75.5312 66.7508 76.1658 63.9135 76.1658ZM63.9135 73.9258C66.1162 73.9258 68.1695 73.4405 70.0735 72.4698C72.0148 71.4618 73.5642 69.9498 74.7215 67.9338C75.8788 65.9178 76.4575 63.4352 76.4575 60.4858C76.4575 57.5738 75.8788 55.1098 74.7215 53.0938C73.5642 51.0778 72.0335 49.5845 70.1295 48.6138C68.2255 47.6058 66.1722 47.1018 63.9695 47.1018C61.7668 47.1018 59.7135 47.6058 57.8095 48.6138C55.9428 49.5845 54.4308 51.0778 53.2735 53.0938C52.1162 55.1098 51.5375 57.5738 51.5375 60.4858C51.5375 63.4352 52.0975 65.9178 53.2175 67.9338C54.3748 69.9498 55.8868 71.4618 57.7535 72.4698C59.6575 73.4405 61.7108 73.9258 63.9135 73.9258ZM96.9273 72.9738L108.127 45.3098H110.815L98.2153 75.7178H95.5833L82.9833 45.3098H85.7272L96.9273 72.9738ZM117.661 38.5338C117.064 38.5338 116.56 38.3472 116.149 37.9738C115.739 37.5632 115.533 37.0218 115.533 36.3498C115.533 35.7152 115.739 35.1925 116.149 34.7818C116.56 34.3712 117.064 34.1658 117.661 34.1658C118.259 34.1658 118.763 34.3712 119.173 34.7818C119.584 35.1925 119.789 35.7152 119.789 36.3498C119.789 37.0218 119.584 37.5632 119.173 37.9738C118.763 38.3472 118.259 38.5338 117.661 38.5338ZM118.893 45.3098V75.7178H116.373V45.3098H118.893ZM156.467 59.5898C156.467 60.4858 156.411 61.4192 156.299 62.3898H134.627C134.776 64.3312 135.392 65.8245 136.475 66.8698C137.595 67.8778 138.958 68.3818 140.563 68.3818C142.952 68.3818 144.614 67.3738 145.547 65.3578H155.739C155.216 67.4112 154.264 69.2592 152.883 70.9018C151.539 72.5445 149.84 73.8325 147.787 74.7658C145.734 75.6992 143.438 76.1658 140.899 76.1658C137.838 76.1658 135.112 75.5125 132.723 74.2058C130.334 72.8992 128.467 71.0325 127.123 68.6058C125.779 66.1792 125.107 63.3418 125.107 60.0938C125.107 56.8458 125.76 54.0085 127.067 51.5818C128.411 49.1552 130.278 47.2885 132.667 45.9818C135.056 44.6752 137.8 44.0218 140.899 44.0218C143.923 44.0218 146.611 44.6565 148.963 45.9258C151.315 47.1952 153.144 49.0058 154.451 51.3578C155.795 53.7098 156.467 56.4538 156.467 59.5898ZM146.667 57.0698C146.667 55.4272 146.107 54.1205 144.987 53.1498C143.867 52.1792 142.467 51.6938 140.787 51.6938C139.182 51.6938 137.819 52.1605 136.699 53.0938C135.616 54.0272 134.944 55.3525 134.683 57.0698H146.667ZM171.095 34.2778V75.7178H161.519V34.2778H171.095ZM182.851 41.2218C181.171 41.2218 179.789 40.7365 178.707 39.7658C177.661 38.7578 177.139 37.5258 177.139 36.0698C177.139 34.5765 177.661 33.3445 178.707 32.3738C179.789 31.3658 181.171 30.8618 182.851 30.8618C184.493 30.8618 185.837 31.3658 186.883 32.3738C187.965 33.3445 188.507 34.5765 188.507 36.0698C188.507 37.5258 187.965 38.7578 186.883 39.7658C185.837 40.7365 184.493 41.2218 182.851 41.2218ZM187.611 44.4698V75.7178H178.035V44.4698H187.611ZM206.422 44.0218C208.625 44.0218 210.547 44.4698 212.19 45.3658C213.87 46.2618 215.158 47.4378 216.054 48.8938V44.4698H225.63V75.6618C225.63 78.5365 225.051 81.1312 223.894 83.4458C222.774 85.7978 221.038 87.6645 218.686 89.0458C216.371 90.4272 213.478 91.1178 210.006 91.1178C205.377 91.1178 201.625 90.0165 198.75 87.8138C195.875 85.6485 194.233 82.6992 193.822 78.9658H203.286C203.585 80.1605 204.294 81.0938 205.414 81.7658C206.534 82.4752 207.915 82.8298 209.558 82.8298C211.537 82.8298 213.105 82.2512 214.262 81.0938C215.457 79.9738 216.054 78.1632 216.054 75.6618V71.2378C215.121 72.6938 213.833 73.8885 212.19 74.8218C210.547 75.7178 208.625 76.1658 206.422 76.1658C203.846 76.1658 201.513 75.5125 199.422 74.2058C197.331 72.8618 195.67 70.9765 194.438 68.5498C193.243 66.0858 192.646 63.2485 192.646 60.0378C192.646 56.8272 193.243 54.0085 194.438 51.5818C195.67 49.1552 197.331 47.2885 199.422 45.9818C201.513 44.6752 203.846 44.0218 206.422 44.0218ZM216.054 60.0938C216.054 57.7045 215.382 55.8192 214.038 54.4378C212.731 53.0565 211.126 52.3658 209.222 52.3658C207.318 52.3658 205.694 53.0565 204.35 54.4378C203.043 55.7818 202.39 57.6485 202.39 60.0378C202.39 62.4272 203.043 64.3312 204.35 65.7498C205.694 67.1312 207.318 67.8218 209.222 67.8218C211.126 67.8218 212.731 67.1312 214.038 65.7498C215.382 64.3685 216.054 62.4832 216.054 60.0938ZM262.014 59.5898C262.014 60.4858 261.958 61.4192 261.846 62.3898H240.174C240.323 64.3312 240.939 65.8245 242.022 66.8698C243.142 67.8778 244.505 68.3818 246.11 68.3818C248.499 68.3818 250.161 67.3738 251.094 65.3578H261.286C260.763 67.4112 259.811 69.2592 258.43 70.9018C257.086 72.5445 255.387 73.8325 253.334 74.7658C251.281 75.6992 248.985 76.1658 246.446 76.1658C243.385 76.1658 240.659 75.5125 238.27 74.2058C235.881 72.8992 234.014 71.0325 232.67 68.6058C231.326 66.1792 230.654 63.3418 230.654 60.0938C230.654 56.8458 231.307 54.0085 232.614 51.5818C233.958 49.1552 235.825 47.2885 238.214 45.9818C240.603 44.6752 243.347 44.0218 246.446 44.0218C249.47 44.0218 252.158 44.6565 254.51 45.9258C256.862 47.1952 258.691 49.0058 259.998 51.3578C261.342 53.7098 262.014 56.4538 262.014 59.5898ZM252.214 57.0698C252.214 55.4272 251.654 54.1205 250.534 53.1498C249.414 52.1792 248.014 51.6938 246.334 51.6938C244.729 51.6938 243.366 52.1605 242.246 53.0938C241.163 54.0272 240.491 55.3525 240.23 57.0698H252.214ZM286.106 44.1338C289.764 44.1338 292.676 45.3285 294.842 47.7178C297.044 50.0698 298.146 53.3178 298.146 57.4618V75.7178H288.626V58.7498C288.626 56.6592 288.084 55.0352 287.002 53.8778C285.919 52.7205 284.463 52.1418 282.634 52.1418C280.804 52.1418 279.348 52.7205 278.266 53.8778C277.183 55.0352 276.642 56.6592 276.642 58.7498V75.7178H267.066V44.4698H276.642V48.6138C277.612 47.2325 278.919 46.1498 280.562 45.3658C282.204 44.5445 284.052 44.1338 286.106 44.1338ZM322.216 67.5978V75.7178H317.344C313.872 75.7178 311.165 74.8778 309.224 73.1978C307.283 71.4805 306.312 68.6992 306.312 64.8538V52.4218H302.504V44.4698H306.312V36.8538H315.888V44.4698H322.16V52.4218H315.888V64.9658C315.888 65.8992 316.112 66.5712 316.56 66.9818C317.008 67.3925 317.755 67.5978 318.8 67.5978H322.216Z" fill="white"/>
<path id="Subtract" fill-rule="evenodd" clip-rule="evenodd" d="M289.708 25.3652L289.453 25.0914C288.313 23.8678 286.977 23.0113 285.561 22.4962C295.801 10.945 312.041 5.47997 327.965 9.74697C350.411 15.7614 363.732 38.8331 357.717 61.2791C355.313 70.253 350.182 77.7683 343.454 83.1725C343.234 82.8753 342.995 82.5875 342.737 82.3109L340.085 79.4634C346.128 74.6885 350.741 67.9964 352.888 59.985C358.187 40.2063 346.45 19.8763 326.671 14.5766C312.845 10.872 298.75 15.4925 289.708 25.3652Z" fill="url(#paint0_linear_3_986)"/>
<path id="Search from hundreds of movies." d="M4.448 19.8298C3.73333 19.8298 3.10933 19.7018 2.576 19.4458C2.05333 19.1898 1.648 18.8538 1.36 18.4378C1.072 18.0112 0.901333 17.5525 0.848 17.0618H1.168C1.22133 17.4352 1.35467 17.8085 1.568 18.1818C1.792 18.5552 2.13867 18.8752 2.608 19.1418C3.088 19.4085 3.70133 19.5418 4.448 19.5418C5.04533 19.5418 5.57333 19.4298 6.032 19.2058C6.49067 18.9712 6.84267 18.6618 7.088 18.2778C7.33333 17.8938 7.456 17.4672 7.456 16.9978C7.456 16.3898 7.31733 15.9098 7.04 15.5578C6.76267 15.1952 6.416 14.9285 6 14.7578C5.59467 14.5872 5.04533 14.4112 4.352 14.2298C3.62667 14.0378 3.04533 13.8458 2.608 13.6538C2.17067 13.4618 1.79733 13.1685 1.488 12.7738C1.18933 12.3685 1.04 11.8245 1.04 11.1418C1.04 10.6512 1.17333 10.1925 1.44 9.76583C1.71733 9.3285 2.10667 8.98183 2.608 8.72583C3.12 8.46983 3.70133 8.34183 4.352 8.34183C5.01333 8.34183 5.584 8.45917 6.064 8.69383C6.544 8.9285 6.91733 9.22717 7.184 9.58983C7.46133 9.94183 7.64267 10.3152 7.728 10.7098H7.408C7.33333 10.4005 7.17867 10.0858 6.944 9.76583C6.70933 9.44583 6.37333 9.17917 5.936 8.96583C5.49867 8.74183 4.97067 8.62983 4.352 8.62983C3.808 8.62983 3.30667 8.7365 2.848 8.94983C2.4 9.1525 2.03733 9.44583 1.76 9.82983C1.49333 10.2032 1.36 10.6405 1.36 11.1418C1.36 11.7605 1.49867 12.2565 1.776 12.6298C2.064 12.9925 2.416 13.2645 2.832 13.4458C3.248 13.6165 3.80267 13.7925 4.496 13.9738C5.22133 14.1658 5.79733 14.3578 6.224 14.5498C6.66133 14.7312 7.02933 15.0192 7.328 15.4138C7.62667 15.7978 7.776 16.3258 7.776 16.9978C7.776 17.4672 7.648 17.9205 7.392 18.3578C7.14667 18.7952 6.77333 19.1525 6.272 19.4298C5.77067 19.6965 5.16267 19.8298 4.448 19.8298ZM14.1781 19.5418C15.1488 19.5418 15.9648 19.2965 16.6261 18.8058C17.2875 18.3152 17.6875 17.6432 17.8261 16.7898H18.1461C17.9968 17.6965 17.5701 18.4325 16.8661 18.9978C16.1728 19.5525 15.2768 19.8298 14.1781 19.8298C13.3781 19.8298 12.6635 19.6538 12.0341 19.3018C11.4048 18.9498 10.9088 18.4378 10.5461 17.7658C10.1941 17.0938 10.0181 16.3045 10.0181 15.3978C10.0181 14.4912 10.1941 13.7018 10.5461 13.0298C10.9088 12.3578 11.4048 11.8458 12.0341 11.4938C12.6635 11.1418 13.3781 10.9658 14.1781 10.9658C15.0208 10.9658 15.7408 11.1472 16.3381 11.5098C16.9355 11.8618 17.3835 12.3205 17.6821 12.8858C17.9915 13.4512 18.1461 14.0485 18.1461 14.6778C18.1461 15.0618 18.1408 15.3498 18.1301 15.5418H10.3381C10.3488 16.4272 10.5301 17.1685 10.8821 17.7658C11.2448 18.3632 11.7141 18.8112 12.2901 19.1098C12.8661 19.3978 13.4955 19.5418 14.1781 19.5418ZM14.1781 11.2538C13.4955 11.2538 12.8661 11.4032 12.2901 11.7018C11.7141 11.9898 11.2448 12.4325 10.8821 13.0298C10.5301 13.6272 10.3488 14.3685 10.3381 15.2538H17.8581C17.9115 14.3685 17.7675 13.6272 17.4261 13.0298C17.0955 12.4325 16.6368 11.9898 16.0501 11.7018C15.4741 11.4032 14.8501 11.2538 14.1781 11.2538ZM20.545 15.3978C20.545 14.4912 20.721 13.7072 21.073 13.0458C21.425 12.3738 21.921 11.8618 22.561 11.5098C23.201 11.1472 23.9317 10.9658 24.753 10.9658C25.745 10.9658 26.5823 11.2272 27.265 11.7498C27.9583 12.2618 28.4223 12.9178 28.657 13.7178V11.0778H28.961V19.7178H28.657V17.0778C28.4223 17.8778 27.9583 18.5392 27.265 19.0618C26.5823 19.5738 25.745 19.8298 24.753 19.8298C23.9317 19.8298 23.201 19.6538 22.561 19.3018C21.921 18.9392 21.425 18.4272 21.073 17.7658C20.721 17.0938 20.545 16.3045 20.545 15.3978ZM28.657 15.3978C28.657 14.5765 28.4863 13.8565 28.145 13.2378C27.8143 12.6085 27.3503 12.1232 26.753 11.7818C26.1663 11.4298 25.4997 11.2538 24.753 11.2538C23.9637 11.2538 23.2757 11.4192 22.689 11.7498C22.113 12.0805 21.665 12.5605 21.345 13.1898C21.025 13.8085 20.865 14.5445 20.865 15.3978C20.865 16.2512 21.025 16.9925 21.345 17.6218C21.665 18.2405 22.113 18.7152 22.689 19.0458C23.2757 19.3765 23.9637 19.5418 24.753 19.5418C25.4997 19.5418 26.1663 19.3712 26.753 19.0298C27.3503 18.6778 27.8143 18.1925 28.145 17.5738C28.4863 16.9445 28.657 16.2192 28.657 15.3978ZM32.4794 13.1738C32.8207 11.6485 33.9567 10.8858 35.8874 10.8858V11.2378H35.7434C34.8367 11.2378 34.0634 11.5045 33.4234 12.0378C32.794 12.5605 32.4794 13.4085 32.4794 14.5818V19.7178H32.1594V11.0778H32.4794V13.1738ZM37.6456 15.3978C37.6456 14.4912 37.8216 13.7018 38.1736 13.0298C38.5363 12.3578 39.0323 11.8458 39.6616 11.4938C40.291 11.1418 41.0056 10.9658 41.8056 10.9658C42.9043 10.9658 43.8003 11.2485 44.4936 11.8138C45.1976 12.3685 45.6243 13.0992 45.7736 14.0058H45.4536C45.315 13.1525 44.915 12.4805 44.2536 11.9898C43.5923 11.4992 42.7763 11.2538 41.8056 11.2538C41.1123 11.2538 40.4723 11.4085 39.8856 11.7178C39.3096 12.0165 38.8456 12.4752 38.4936 13.0938C38.1416 13.7125 37.9656 14.4805 37.9656 15.3978C37.9656 16.3152 38.1416 17.0832 38.4936 17.7018C38.8456 18.3205 39.3096 18.7845 39.8856 19.0938C40.4723 19.3925 41.1123 19.5418 41.8056 19.5418C42.7763 19.5418 43.5923 19.2965 44.2536 18.8058C44.915 18.3152 45.315 17.6432 45.4536 16.7898H45.7736C45.6243 17.6965 45.1976 18.4325 44.4936 18.9978C43.8003 19.5525 42.9043 19.8298 41.8056 19.8298C41.0056 19.8298 40.291 19.6538 39.6616 19.3018C39.0323 18.9498 38.5363 18.4378 38.1736 17.7658C37.8216 17.0938 37.6456 16.3045 37.6456 15.3978ZM52.2845 10.8858C53.2978 10.8858 54.1298 11.2005 54.7805 11.8298C55.4312 12.4592 55.7565 13.4085 55.7565 14.6778V19.7178H55.4525V14.6458C55.4525 13.5152 55.1698 12.6565 54.6045 12.0698C54.0392 11.4725 53.2658 11.1738 52.2845 11.1738C51.2605 11.1738 50.4392 11.5098 49.8205 12.1818C49.2018 12.8432 48.8925 13.8245 48.8925 15.1258V19.7178H48.5725V7.87783H48.8925V13.3498C49.0952 12.5498 49.5005 11.9418 50.1085 11.5258C50.7165 11.0992 51.4418 10.8858 52.2845 10.8858ZM67.1693 8.19783C66.2413 8.19783 65.5959 8.37917 65.2333 8.74183C64.8706 9.09383 64.6893 9.66983 64.6893 10.4698V11.0778H67.1693V11.4138H64.6893V19.7178H64.3693V11.4138H62.9613V11.0778H64.3693V10.4698C64.3693 9.59517 64.5826 8.9445 65.0093 8.51783C65.4359 8.09117 66.1559 7.87783 67.1693 7.87783V8.19783ZM69.895 13.1738C70.2363 11.6485 71.3723 10.8858 73.303 10.8858V11.2378H73.159C72.2523 11.2378 71.479 11.5045 70.839 12.0378C70.2097 12.5605 69.895 13.4085 69.895 14.5818V19.7178H69.575V11.0778H69.895V13.1738ZM79.2852 19.8298C78.4852 19.8298 77.7652 19.6538 77.1252 19.3018C76.4852 18.9392 75.9786 18.4272 75.6052 17.7658C75.2426 17.0938 75.0612 16.3045 75.0612 15.3978C75.0612 14.4912 75.2426 13.7072 75.6052 13.0458C75.9786 12.3738 76.4852 11.8618 77.1252 11.5098C77.7652 11.1472 78.4852 10.9658 79.2852 10.9658C80.0852 10.9658 80.8053 11.1472 81.4453 11.5098C82.0853 11.8618 82.5866 12.3738 82.9493 13.0458C83.3119 13.7072 83.4932 14.4912 83.4932 15.3978C83.4932 16.3045 83.3119 17.0938 82.9493 17.7658C82.5866 18.4272 82.0853 18.9392 81.4453 19.3018C80.8053 19.6538 80.0852 19.8298 79.2852 19.8298ZM79.2852 19.5418C79.9786 19.5418 80.6186 19.3925 81.2053 19.0938C81.7919 18.7845 82.2666 18.3205 82.6293 17.7018C82.9919 17.0832 83.1733 16.3152 83.1733 15.3978C83.1733 14.4805 82.9919 13.7125 82.6293 13.0938C82.2666 12.4752 81.7919 12.0165 81.2053 11.7178C80.6186 11.4085 79.9786 11.2538 79.2852 11.2538C78.5919 11.2538 77.9466 11.4085 77.3492 11.7178C76.7626 12.0165 76.2879 12.4805 75.9252 13.1098C75.5626 13.7285 75.3812 14.4912 75.3812 15.3978C75.3812 16.3045 75.5626 17.0725 75.9252 17.7018C76.2879 18.3205 76.7626 18.7845 77.3492 19.0938C77.9466 19.3925 78.5919 19.5418 79.2852 19.5418ZM96.4126 10.8858C97.3726 10.8858 98.162 11.2005 98.7806 11.8298C99.3993 12.4592 99.7086 13.4085 99.7086 14.6778V19.7178H99.4046V14.6458C99.4046 13.5152 99.138 12.6565 98.6046 12.0698C98.0713 11.4725 97.3406 11.1738 96.4126 11.1738C95.442 11.1738 94.658 11.5205 94.0606 12.2138C93.4633 12.8965 93.1646 13.8938 93.1646 15.2058V19.7178H92.8606V14.6458C92.8606 13.5152 92.594 12.6565 92.0606 12.0698C91.5273 11.4725 90.7966 11.1738 89.8686 11.1738C88.8873 11.1738 88.098 11.5205 87.5006 12.2138C86.914 12.8965 86.6206 13.8938 86.6206 15.2058V19.7178H86.3006V11.0778H86.6206V13.3658C86.834 12.5338 87.2286 11.9152 87.8046 11.5098C88.3913 11.0938 89.0793 10.8858 89.8686 10.8858C90.6793 10.8858 91.3726 11.1152 91.9486 11.5738C92.5353 12.0218 92.9086 12.7045 93.0686 13.6218C93.2606 12.7045 93.6553 12.0218 94.2526 11.5738C94.8606 11.1152 95.5806 10.8858 96.4126 10.8858ZM111.66 10.8858C112.673 10.8858 113.505 11.2005 114.156 11.8298C114.807 12.4592 115.132 13.4085 115.132 14.6778V19.7178H114.828V14.6458C114.828 13.5152 114.545 12.6565 113.98 12.0698C113.415 11.4725 112.641 11.1738 111.66 11.1738C110.636 11.1738 109.815 11.5098 109.196 12.1818C108.577 12.8432 108.268 13.8245 108.268 15.1258V19.7178H107.948V7.87783H108.268V13.3498C108.471 12.5498 108.876 11.9418 109.484 11.5258C110.092 11.0992 110.817 10.8858 111.66 10.8858ZM125.36 11.0778V19.7178H125.04V17.3658C124.848 18.1872 124.443 18.8112 123.824 19.2378C123.216 19.6645 122.491 19.8778 121.648 19.8778C120.635 19.8778 119.803 19.5632 119.152 18.9338C118.502 18.3045 118.176 17.3552 118.176 16.0858V11.0778H118.48V16.1178C118.48 17.2485 118.763 18.1125 119.328 18.7098C119.894 19.2965 120.667 19.5898 121.648 19.5898C122.672 19.5898 123.494 19.2592 124.112 18.5978C124.731 17.9258 125.04 16.9392 125.04 15.6378V11.0778H125.36ZM132.276 10.8858C133.29 10.8858 134.122 11.2005 134.772 11.8298C135.423 12.4592 135.748 13.4085 135.748 14.6778V19.7178H135.444V14.6458C135.444 13.5152 135.162 12.6565 134.596 12.0698C134.031 11.4725 133.258 11.1738 132.276 11.1738C131.252 11.1738 130.431 11.5098 129.812 12.1818C129.194 12.8432 128.884 13.8245 128.884 15.1258V19.7178H128.564V11.0778H128.884V13.3498C129.087 12.5498 129.492 11.9418 130.1 11.5258C130.708 11.0992 131.434 10.8858 132.276 10.8858ZM138.472 15.3978C138.472 14.4912 138.648 13.7072 139 13.0458C139.352 12.3738 139.848 11.8618 140.488 11.5098C141.128 11.1472 141.859 10.9658 142.68 10.9658C143.672 10.9658 144.51 11.2272 145.192 11.7498C145.886 12.2618 146.35 12.9178 146.584 13.7178V7.87783H146.888V19.7178H146.584V17.0618C146.35 17.8725 145.886 18.5392 145.192 19.0618C144.51 19.5738 143.672 19.8298 142.68 19.8298C141.859 19.8298 141.128 19.6538 140.488 19.3018C139.848 18.9392 139.352 18.4272 139 17.7658C138.648 17.0938 138.472 16.3045 138.472 15.3978ZM146.584 15.3978C146.584 14.5765 146.414 13.8565 146.072 13.2378C145.742 12.6085 145.278 12.1232 144.68 11.7818C144.094 11.4298 143.427 11.2538 142.68 11.2538C141.891 11.2538 141.203 11.4192 140.616 11.7498C140.04 12.0805 139.592 12.5605 139.272 13.1898C138.952 13.8085 138.792 14.5445 138.792 15.3978C138.792 16.2512 138.952 16.9925 139.272 17.6218C139.592 18.2405 140.04 18.7152 140.616 19.0458C141.203 19.3765 141.891 19.5418 142.68 19.5418C143.427 19.5418 144.094 19.3712 144.68 19.0298C145.278 18.6778 145.742 18.1925 146.072 17.5738C146.414 16.9445 146.584 16.2192 146.584 15.3978ZM150.407 13.1738C150.748 11.6485 151.884 10.8858 153.815 10.8858V11.2378H153.671C152.764 11.2378 151.991 11.5045 151.351 12.0378C150.722 12.5605 150.407 13.4085 150.407 14.5818V19.7178H150.087V11.0778H150.407V13.1738ZM159.733 19.5418C160.704 19.5418 161.52 19.2965 162.181 18.8058C162.842 18.3152 163.242 17.6432 163.381 16.7898H163.701C163.552 17.6965 163.125 18.4325 162.421 18.9978C161.728 19.5525 160.832 19.8298 159.733 19.8298C158.933 19.8298 158.218 19.6538 157.589 19.3018C156.96 18.9498 156.464 18.4378 156.101 17.7658C155.749 17.0938 155.573 16.3045 155.573 15.3978C155.573 14.4912 155.749 13.7018 156.101 13.0298C156.464 12.3578 156.96 11.8458 157.589 11.4938C158.218 11.1418 158.933 10.9658 159.733 10.9658C160.576 10.9658 161.296 11.1472 161.893 11.5098C162.49 11.8618 162.938 12.3205 163.237 12.8858C163.546 13.4512 163.701 14.0485 163.701 14.6778C163.701 15.0618 163.696 15.3498 163.685 15.5418H155.893C155.904 16.4272 156.085 17.1685 156.437 17.7658C156.8 18.3632 157.269 18.8112 157.845 19.1098C158.421 19.3978 159.05 19.5418 159.733 19.5418ZM159.733 11.2538C159.05 11.2538 158.421 11.4032 157.845 11.7018C157.269 11.9898 156.8 12.4325 156.437 13.0298C156.085 13.6272 155.904 14.3685 155.893 15.2538H163.413C163.466 14.3685 163.322 13.6272 162.981 13.0298C162.65 12.4325 162.192 11.9898 161.605 11.7018C161.029 11.4032 160.405 11.2538 159.733 11.2538ZM166.1 15.3978C166.1 14.4912 166.276 13.7072 166.628 13.0458C166.98 12.3738 167.476 11.8618 168.116 11.5098C168.756 11.1472 169.487 10.9658 170.308 10.9658C171.3 10.9658 172.137 11.2272 172.82 11.7498C173.513 12.2618 173.977 12.9178 174.212 13.7178V7.87783H174.516V19.7178H174.212V17.0618C173.977 17.8725 173.513 18.5392 172.82 19.0618C172.137 19.5738 171.3 19.8298 170.308 19.8298C169.487 19.8298 168.756 19.6538 168.116 19.3018C167.476 18.9392 166.98 18.4272 166.628 17.7658C166.276 17.0938 166.1 16.3045 166.1 15.3978ZM174.212 15.3978C174.212 14.5765 174.041 13.8565 173.7 13.2378C173.369 12.6085 172.905 12.1232 172.308 11.7818C171.721 11.4298 171.055 11.2538 170.308 11.2538C169.519 11.2538 168.831 11.4192 168.244 11.7498C167.668 12.0805 167.22 12.5605 166.9 13.1898C166.58 13.8085 166.42 14.5445 166.42 15.3978C166.42 16.2512 166.58 16.9925 166.9 17.6218C167.22 18.2405 167.668 18.7152 168.244 19.0458C168.831 19.3765 169.519 19.5418 170.308 19.5418C171.055 19.5418 171.721 19.3712 172.308 19.0298C172.905 18.6778 173.369 18.1925 173.7 17.5738C174.041 16.9445 174.212 16.2192 174.212 15.3978ZM180.498 19.8298C179.549 19.8298 178.781 19.6378 178.194 19.2538C177.618 18.8698 177.282 18.2885 177.186 17.5098H177.506C177.57 18.1498 177.853 18.6512 178.354 19.0138C178.866 19.3658 179.586 19.5418 180.514 19.5418C180.984 19.5418 181.394 19.4512 181.746 19.2698C182.109 19.0885 182.386 18.8485 182.578 18.5498C182.77 18.2405 182.866 17.9098 182.866 17.5578C182.866 17.1738 182.754 16.8645 182.53 16.6298C182.317 16.3845 182.045 16.1978 181.714 16.0698C181.394 15.9418 180.952 15.8032 180.386 15.6538C179.757 15.4938 179.245 15.3338 178.85 15.1738C178.466 15.0138 178.136 14.7685 177.858 14.4378C177.592 14.1072 177.458 13.6698 177.458 13.1258C177.458 12.7418 177.576 12.3845 177.81 12.0538C178.045 11.7232 178.365 11.4618 178.77 11.2698C179.186 11.0672 179.65 10.9658 180.162 10.9658C181.037 10.9658 181.741 11.1845 182.274 11.6218C182.808 12.0592 183.096 12.6672 183.138 13.4458H182.818C182.786 12.8058 182.541 12.2832 182.082 11.8778C181.634 11.4618 180.994 11.2538 180.162 11.2538C179.714 11.2538 179.309 11.3392 178.946 11.5098C178.584 11.6805 178.296 11.9098 178.082 12.1978C177.88 12.4858 177.778 12.7952 177.778 13.1258C177.778 13.5952 177.901 13.9738 178.146 14.2618C178.392 14.5498 178.69 14.7632 179.042 14.9018C179.405 15.0405 179.885 15.1898 180.482 15.3498C181.09 15.5205 181.565 15.6752 181.906 15.8138C182.258 15.9525 182.557 16.1658 182.802 16.4538C183.048 16.7312 183.17 17.0992 183.17 17.5578C183.17 17.9845 183.053 18.3738 182.818 18.7258C182.584 19.0672 182.264 19.3392 181.858 19.5418C181.453 19.7338 181 19.8298 180.498 19.8298ZM194.873 19.8298C194.073 19.8298 193.353 19.6538 192.713 19.3018C192.073 18.9392 191.567 18.4272 191.193 17.7658C190.831 17.0938 190.649 16.3045 190.649 15.3978C190.649 14.4912 190.831 13.7072 191.193 13.0458C191.567 12.3738 192.073 11.8618 192.713 11.5098C193.353 11.1472 194.073 10.9658 194.873 10.9658C195.673 10.9658 196.393 11.1472 197.033 11.5098C197.673 11.8618 198.175 12.3738 198.537 13.0458C198.9 13.7072 199.081 14.4912 199.081 15.3978C199.081 16.3045 198.9 17.0938 198.537 17.7658C198.175 18.4272 197.673 18.9392 197.033 19.3018C196.393 19.6538 195.673 19.8298 194.873 19.8298ZM194.873 19.5418C195.567 19.5418 196.207 19.3925 196.793 19.0938C197.38 18.7845 197.855 18.3205 198.217 17.7018C198.58 17.0832 198.761 16.3152 198.761 15.3978C198.761 14.4805 198.58 13.7125 198.217 13.0938C197.855 12.4752 197.38 12.0165 196.793 11.7178C196.207 11.4085 195.567 11.2538 194.873 11.2538C194.18 11.2538 193.535 11.4085 192.937 11.7178C192.351 12.0165 191.876 12.4805 191.513 13.1098C191.151 13.7285 190.969 14.4912 190.969 15.3978C190.969 16.3045 191.151 17.0725 191.513 17.7018C191.876 18.3205 192.351 18.7845 192.937 19.0938C193.535 19.3925 194.18 19.5418 194.873 19.5418ZM205.057 8.19783C204.129 8.19783 203.483 8.37917 203.121 8.74183C202.758 9.09383 202.577 9.66983 202.577 10.4698V11.0778H205.057V11.4138H202.577V19.7178H202.257V11.4138H200.849V11.0778H202.257V10.4698C202.257 9.59517 202.47 8.9445 202.897 8.51783C203.323 8.09117 204.043 7.87783 205.057 7.87783V8.19783ZM222.695 10.8858C223.655 10.8858 224.444 11.2005 225.063 11.8298C225.682 12.4592 225.991 13.4085 225.991 14.6778V19.7178H225.687V14.6458C225.687 13.5152 225.42 12.6565 224.887 12.0698C224.354 11.4725 223.623 11.1738 222.695 11.1738C221.724 11.1738 220.94 11.5205 220.343 12.2138C219.746 12.8965 219.447 13.8938 219.447 15.2058V19.7178H219.143V14.6458C219.143 13.5152 218.876 12.6565 218.343 12.0698C217.81 11.4725 217.079 11.1738 216.151 11.1738C215.17 11.1738 214.38 11.5205 213.783 12.2138C213.196 12.8965 212.903 13.8938 212.903 15.2058V19.7178H212.583V11.0778H212.903V13.3658C213.116 12.5338 213.511 11.9152 214.087 11.5098C214.674 11.0938 215.362 10.8858 216.151 10.8858C216.962 10.8858 217.655 11.1152 218.231 11.5738C218.818 12.0218 219.191 12.7045 219.351 13.6218C219.543 12.7045 219.938 12.0218 220.535 11.5738C221.143 11.1152 221.863 10.8858 222.695 10.8858ZM232.934 19.8298C232.134 19.8298 231.414 19.6538 230.774 19.3018C230.134 18.9392 229.627 18.4272 229.254 17.7658C228.891 17.0938 228.71 16.3045 228.71 15.3978C228.71 14.4912 228.891 13.7072 229.254 13.0458C229.627 12.3738 230.134 11.8618 230.774 11.5098C231.414 11.1472 232.134 10.9658 232.934 10.9658C233.734 10.9658 234.454 11.1472 235.094 11.5098C235.734 11.8618 236.235 12.3738 236.598 13.0458C236.961 13.7072 237.142 14.4912 237.142 15.3978C237.142 16.3045 236.961 17.0938 236.598 17.7658C236.235 18.4272 235.734 18.9392 235.094 19.3018C234.454 19.6538 233.734 19.8298 232.934 19.8298ZM232.934 19.5418C233.627 19.5418 234.267 19.3925 234.854 19.0938C235.441 18.7845 235.915 18.3205 236.278 17.7018C236.641 17.0832 236.822 16.3152 236.822 15.3978C236.822 14.4805 236.641 13.7125 236.278 13.0938C235.915 12.4752 235.441 12.0165 234.854 11.7178C234.267 11.4085 233.627 11.2538 232.934 11.2538C232.241 11.2538 231.595 11.4085 230.998 11.7178C230.411 12.0165 229.937 12.4805 229.574 13.1098C229.211 13.7285 229.03 14.4912 229.03 15.3978C229.03 16.3045 229.211 17.0725 229.574 17.7018C229.937 18.3205 230.411 18.7845 230.998 19.0938C231.595 19.3925 232.241 19.5418 232.934 19.5418ZM242.717 19.2378L246.173 11.0778H246.509L242.829 19.7178H242.589L238.909 11.0778H239.261L242.717 19.2378ZM248.824 8.86983C248.706 8.86983 248.605 8.8325 248.52 8.75783C248.445 8.6725 248.408 8.56583 248.408 8.43783C248.408 8.30983 248.445 8.2085 248.52 8.13383C248.605 8.0485 248.706 8.00583 248.824 8.00583C248.941 8.00583 249.037 8.0485 249.112 8.13383C249.197 8.2085 249.24 8.30983 249.24 8.43783C249.24 8.56583 249.197 8.6725 249.112 8.75783C249.037 8.8325 248.941 8.86983 248.824 8.86983ZM248.984 11.0778V19.7178H248.664V11.0778H248.984ZM255.951 19.5418C256.921 19.5418 257.737 19.2965 258.399 18.8058C259.06 18.3152 259.46 17.6432 259.599 16.7898H259.919C259.769 17.6965 259.343 18.4325 258.639 18.9978C257.945 19.5525 257.049 19.8298 255.951 19.8298C255.151 19.8298 254.436 19.6538 253.807 19.3018C253.177 18.9498 252.681 18.4378 252.319 17.7658C251.967 17.0938 251.791 16.3045 251.791 15.3978C251.791 14.4912 251.967 13.7018 252.319 13.0298C252.681 12.3578 253.177 11.8458 253.807 11.4938C254.436 11.1418 255.151 10.9658 255.951 10.9658C256.793 10.9658 257.513 11.1472 258.111 11.5098C258.708 11.8618 259.156 12.3205 259.455 12.8858C259.764 13.4512 259.919 14.0485 259.919 14.6778C259.919 15.0618 259.913 15.3498 259.903 15.5418H252.111C252.121 16.4272 252.303 17.1685 252.655 17.7658C253.017 18.3632 253.487 18.8112 254.063 19.1098C254.639 19.3978 255.268 19.5418 255.951 19.5418ZM255.951 11.2538C255.268 11.2538 254.639 11.4032 254.063 11.7018C253.487 11.9898 253.017 12.4325 252.655 13.0298C252.303 13.6272 252.121 14.3685 252.111 15.2538H259.631C259.684 14.3685 259.54 13.6272 259.199 13.0298C258.868 12.4325 258.409 11.9898 257.823 11.7018C257.247 11.4032 256.623 11.2538 255.951 11.2538ZM265.502 19.8298C264.552 19.8298 263.784 19.6378 263.198 19.2538C262.622 18.8698 262.286 18.2885 262.19 17.5098H262.51C262.574 18.1498 262.856 18.6512 263.358 19.0138C263.87 19.3658 264.59 19.5418 265.518 19.5418C265.987 19.5418 266.398 19.4512 266.75 19.2698C267.112 19.0885 267.39 18.8485 267.582 18.5498C267.774 18.2405 267.87 17.9098 267.87 17.5578C267.87 17.1738 267.758 16.8645 267.534 16.6298C267.32 16.3845 267.048 16.1978 266.718 16.0698C266.398 15.9418 265.955 15.8032 265.39 15.6538C264.76 15.4938 264.248 15.3338 263.854 15.1738C263.47 15.0138 263.139 14.7685 262.862 14.4378C262.595 14.1072 262.462 13.6698 262.462 13.1258C262.462 12.7418 262.579 12.3845 262.814 12.0538C263.048 11.7232 263.368 11.4618 263.774 11.2698C264.19 11.0672 264.654 10.9658 265.166 10.9658C266.04 10.9658 266.744 11.1845 267.278 11.6218C267.811 12.0592 268.099 12.6672 268.142 13.4458H267.822C267.79 12.8058 267.544 12.2832 267.086 11.8778C266.638 11.4618 265.998 11.2538 265.166 11.2538C264.718 11.2538 264.312 11.3392 263.95 11.5098C263.587 11.6805 263.299 11.9098 263.086 12.1978C262.883 12.4858 262.782 12.7952 262.782 13.1258C262.782 13.5952 262.904 13.9738 263.15 14.2618C263.395 14.5498 263.694 14.7632 264.046 14.9018C264.408 15.0405 264.888 15.1898 265.486 15.3498C266.094 15.5205 266.568 15.6752 266.91 15.8138C267.262 15.9525 267.56 16.1658 267.806 16.4538C268.051 16.7312 268.174 17.0992 268.174 17.5578C268.174 17.9845 268.056 18.3738 267.822 18.7258C267.587 19.0672 267.267 19.3392 266.862 19.5418C266.456 19.7338 266.003 19.8298 265.502 19.8298ZM270.5 19.7498C270.383 19.7498 270.281 19.7125 270.196 19.6378C270.121 19.5525 270.084 19.4458 270.084 19.3178C270.084 19.1898 270.121 19.0885 270.196 19.0138C270.281 18.9285 270.383 18.8858 270.5 18.8858C270.617 18.8858 270.713 18.9285 270.788 19.0138C270.873 19.0885 270.916 19.1898 270.916 19.3178C270.916 19.4458 270.873 19.5525 270.788 19.6378C270.713 19.7125 270.617 19.7498 270.5 19.7498Z" fill="#9B9B9B"/>
</g>
<defs>
<linearGradient id="paint0_linear_3_986" x1="296.058" y1="10.9672" x2="336.64" y2="78.1096" gradientUnits="userSpaceOnUse">
<stop stop-color="#EF473A"/>
<stop offset="1" stop-color="#CB2D3E"/>
</linearGradient>
</defs>
</svg>
