<svg width="369" height="98" viewBox="0 0 369 98" fill="none" xmlns="http://www.w3.org/2000/svg">
<path d="M41.272 37.2458V75.7178H38.752V42.5098L23.968 75.7178H21.952L7.112 42.5098V75.7178H4.592V37.2458H7.28L22.96 72.4138L38.64 37.2458H41.272ZM63.9135 76.1658C61.0762 76.1658 58.5188 75.5312 56.2415 74.2618C53.9642 72.9925 52.1722 71.1818 50.8655 68.8298C49.5962 66.4405 48.9615 63.6592 48.9615 60.4858C48.9615 57.3498 49.6148 54.6058 50.9215 52.2538C52.2282 49.8645 54.0202 48.0538 56.2975 46.8218C58.6122 45.5525 61.1882 44.9178 64.0255 44.9178C66.8628 44.9178 69.4202 45.5525 71.6975 46.8218C73.9748 48.0538 75.7482 49.8458 77.0175 52.1978C78.3242 54.5498 78.9775 57.3125 78.9775 60.4858C78.9775 63.6592 78.3242 66.4405 77.0175 68.8298C75.7108 71.1818 73.9002 72.9925 71.5855 74.2618C69.3082 75.5312 66.7508 76.1658 63.9135 76.1658ZM63.9135 73.9258C66.1162 73.9258 68.1695 73.4405 70.0735 72.4698C72.0148 71.4618 73.5642 69.9498 74.7215 67.9338C75.8788 65.9178 76.4575 63.4352 76.4575 60.4858C76.4575 57.5738 75.8788 55.1098 74.7215 53.0938C73.5642 51.0778 72.0335 49.5845 70.1295 48.6138C68.2255 47.6058 66.1722 47.1018 63.9695 47.1018C61.7668 47.1018 59.7135 47.6058 57.8095 48.6138C55.9428 49.5845 54.4308 51.0778 53.2735 53.0938C52.1162 55.1098 51.5375 57.5738 51.5375 60.4858C51.5375 63.4352 52.0975 65.9178 53.2175 67.9338C54.3748 69.9498 55.8868 71.4618 57.7535 72.4698C59.6575 73.4405 61.7108 73.9258 63.9135 73.9258ZM96.9273 72.9738L108.127 45.3098H110.815L98.2153 75.7178H95.5833L82.9833 45.3098H85.7272L96.9273 72.9738ZM117.661 38.5338C117.064 38.5338 116.56 38.3472 116.149 37.9738C115.739 37.5632 115.533 37.0218 115.533 36.3498C115.533 35.7152 115.739 35.1925 116.149 34.7818C116.56 34.3712 117.064 34.1658 117.661 34.1658C118.259 34.1658 118.763 34.3712 119.173 34.7818C119.584 35.1925 119.789 35.7152 119.789 36.3498C119.789 37.0218 119.584 37.5632 119.173 37.9738C118.763 38.3472 118.259 38.5338 117.661 38.5338ZM118.893 45.3098V75.7178H116.373V45.3098H118.893ZM156.467 59.5898C156.467 60.4858 156.411 61.4192 156.299 62.3898H134.627C134.776 64.3312 135.392 65.8245 136.475 66.8698C137.595 67.8778 138.958 68.3818 140.563 68.3818C142.952 68.3818 144.614 67.3738 145.547 65.3578H155.739C155.216 67.4112 154.264 69.2592 152.883 70.9018C151.539 72.5445 149.84 73.8325 147.787 74.7658C145.734 75.6992 143.438 76.1658 140.899 76.1658C137.838 76.1658 135.112 75.5125 132.723 74.2058C130.334 72.8992 128.467 71.0325 127.123 68.6058C125.779 66.1792 125.107 63.3418 125.107 60.0938C125.107 56.8458 125.76 54.0085 127.067 51.5818C128.411 49.1552 130.278 47.2885 132.667 45.9818C135.056 44.6752 137.8 44.0218 140.899 44.0218C143.923 44.0218 146.611 44.6565 148.963 45.9258C151.315 47.1952 153.144 49.0058 154.451 51.3578C155.795 53.7098 156.467 56.4538 156.467 59.5898ZM146.667 57.0698C146.667 55.4272 146.107 54.1205 144.987 53.1498C143.867 52.1792 142.467 51.6938 140.787 51.6938C139.182 51.6938 137.819 52.1605 136.699 53.0938C135.616 54.0272 134.944 55.3525 134.683 57.0698H146.667ZM171.095 34.2778V75.7178H161.519V34.2778H171.095ZM182.851 41.2218C181.171 41.2218 179.789 40.7365 178.707 39.7658C177.661 38.7578 177.139 37.5258 177.139 36.0698C177.139 34.5765 177.661 33.3445 178.707 32.3738C179.789 31.3658 181.171 30.8618 182.851 30.8618C184.493 30.8618 185.837 31.3658 186.883 32.3738C187.965 33.3445 188.507 34.5765 188.507 36.0698C188.507 37.5258 187.965 38.7578 186.883 39.7658C185.837 40.7365 184.493 41.2218 182.851 41.2218ZM187.611 44.4698V75.7178H178.035V44.4698H187.611ZM206.422 44.0218C208.625 44.0218 210.547 44.4698 212.19 45.3658C213.87 46.2618 215.158 47.4378 216.054 48.8938V44.4698H225.63V75.6618C225.63 78.5365 225.051 81.1312 223.894 83.4458C222.774 85.7978 221.038 87.6645 218.686 89.0458C216.371 90.4272 213.478 91.1178 210.006 91.1178C205.377 91.1178 201.625 90.0165 198.75 87.8138C195.875 85.6485 194.233 82.6992 193.822 78.9658H203.286C203.585 80.1605 204.294 81.0938 205.414 81.7658C206.534 82.4752 207.915 82.8298 209.558 82.8298C211.537 82.8298 213.105 82.2512 214.262 81.0938C215.457 79.9738 216.054 78.1632 216.054 75.6618V71.2378C215.121 72.6938 213.833 73.8885 212.19 74.8218C210.547 75.7178 208.625 76.1658 206.422 76.1658C203.846 76.1658 201.513 75.5125 199.422 74.2058C197.331 72.8618 195.67 70.9765 194.438 68.5498C193.243 66.0858 192.646 63.2485 192.646 60.0378C192.646 56.8272 193.243 54.0085 194.438 51.5818C195.67 49.1552 197.331 47.2885 199.422 45.9818C201.513 44.6752 203.846 44.0218 206.422 44.0218ZM216.054 60.0938C216.054 57.7045 215.382 55.8192 214.038 54.4378C212.731 53.0565 211.126 52.3658 209.222 52.3658C207.318 52.3658 205.694 53.0565 204.35 54.4378C203.043 55.7818 202.39 57.6485 202.39 60.0378C202.39 62.4272 203.043 64.3312 204.35 65.7498C205.694 67.1312 207.318 67.8218 209.222 67.8218C211.126 67.8218 212.731 67.1312 214.038 65.7498C215.382 64.3685 216.054 62.4832 216.054 60.0938ZM262.014 59.5898C262.014 60.4858 261.958 61.4192 261.846 62.3898H240.174C240.323 64.3312 240.939 65.8245 242.022 66.8698C243.142 67.8778 244.505 68.3818 246.11 68.3818C248.499 68.3818 250.161 67.3738 251.094 65.3578H261.286C260.763 67.4112 259.811 69.2592 258.43 70.9018C257.086 72.5445 255.387 73.8325 253.334 74.7658C251.281 75.6992 248.985 76.1658 246.446 76.1658C243.385 76.1658 240.659 75.5125 238.27 74.2058C235.881 72.8992 234.014 71.0325 232.67 68.6058C231.326 66.1792 230.654 63.3418 230.654 60.0938C230.654 56.8458 231.307 54.0085 232.614 51.5818C233.958 49.1552 235.825 47.2885 238.214 45.9818C240.603 44.6752 243.347 44.0218 246.446 44.0218C249.47 44.0218 252.158 44.6565 254.51 45.9258C256.862 47.1952 258.691 49.0058 259.998 51.3578C261.342 53.7098 262.014 56.4538 262.014 59.5898ZM252.214 57.0698C252.214 55.4272 251.654 54.1205 250.534 53.1498C249.414 52.1792 248.014 51.6938 246.334 51.6938C244.729 51.6938 243.366 52.1605 242.246 53.0938C241.163 54.0272 240.491 55.3525 240.23 57.0698H252.214ZM286.106 44.1338C289.764 44.1338 292.676 45.3285 294.842 47.7178C297.044 50.0698 298.146 53.3178 298.146 57.4618V75.7178H288.626V58.7498C288.626 56.6592 288.084 55.0352 287.002 53.8778C285.919 52.7205 284.463 52.1418 282.634 52.1418C280.804 52.1418 279.348 52.7205 278.266 53.8778C277.183 55.0352 276.642 56.6592 276.642 58.7498V75.7178H267.066V44.4698H276.642V48.6138C277.612 47.2325 278.919 46.1498 280.562 45.3658C282.204 44.5445 284.052 44.1338 286.106 44.1338ZM322.216 67.5978V75.7178H317.344C313.872 75.7178 311.165 74.8778 309.224 73.1978C307.283 71.4805 306.312 68.6992 306.312 64.8538V52.4218H302.504V44.4698H306.312V36.8538H315.888V44.4698H322.16V52.4218H315.888V64.9658C315.888 65.8992 316.112 66.5712 316.56 66.9818C317.008 67.3925 317.755 67.5978 318.8 67.5978H322.216Z" fill="white"/>
<path fill-rule="evenodd" clip-rule="evenodd" d="M289.708 25.3653L289.453 25.0915C288.313 23.8678 286.977 23.0113 285.561 22.4963C295.801 10.945 312.041 5.48004 327.965 9.74703C350.411 15.7614 363.732 38.8331 357.717 61.2791C355.313 70.2531 350.182 77.7684 343.454 83.1726C343.234 82.8753 342.995 82.5876 342.737 82.3109L340.085 79.4635C346.128 74.6885 350.741 67.9964 352.888 59.985C358.187 40.2064 346.45 19.8763 326.671 14.5767C312.845 10.872 298.75 15.4925 289.708 25.3653Z" fill="url(#paint0_linear_14_2)"/>
<defs>
<linearGradient id="paint0_linear_14_2" x1="296.058" y1="10.9672" x2="336.64" y2="78.1097" gradientUnits="userSpaceOnUse">
<stop stop-color="#EF473A"/>
<stop offset="1" stop-color="#CB2D3E"/>
</linearGradient>
</defs>
</svg>
