<svg width="369" height="98" viewBox="0 0 369 98" fill="none" xmlns="http://www.w3.org/2000/svg">
<path d="M41.272 37.2458V75.7178H38.752V42.5098L23.968 75.7178H21.952L7.112 42.5098V75.7178H4.592V37.2458H7.28L22.96 72.4138L38.64 37.2458H41.272ZM63.9135 76.1658C61.0762 76.1658 58.5188 75.5312 56.2415 74.2618C53.9642 72.9925 52.1722 71.1818 50.8655 68.8298C49.5962 66.4405 48.9615 63.6592 48.9615 60.4858C48.9615 57.3498 49.6148 54.6058 50.9215 52.2538C52.2282 49.8645 54.0202 48.0538 56.2975 46.8218C58.6122 45.5525 61.1882 44.9178 64.0255 44.9178C66.8628 44.9178 69.4202 45.5525 71.6975 46.8218C73.9748 48.0538 75.7482 49.8458 77.0175 52.1978C78.3242 54.5498 78.9775 57.3125 78.9775 60.4858C78.9775 63.6592 78.3242 66.4405 77.0175 68.8298C75.7108 71.1818 73.9002 72.9925 71.5855 74.2618C69.3082 75.5312 66.7508 76.1658 63.9135 76.1658ZM63.9135 73.9258C66.1162 73.9258 68.1695 73.4405 70.0735 72.4698C72.0148 71.4618 73.5642 69.9498 74.7215 67.9338C75.8788 65.9178 76.4575 63.4352 76.4575 60.4858C76.4575 57.5738 75.8788 55.1098 74.7215 53.0938C73.5642 51.0778 72.0335 49.5845 70.1295 48.6138C68.2255 47.6058 66.1722 47.1018 63.9695 47.1018C61.7668 47.1018 59.7135 47.6058 57.8095 48.6138C55.9428 49.5845 54.4308 51.0778 53.2735 53.0938C52.1162 55.1098 51.5375 57.5738 51.5375 60.4858C51.5375 63.4352 52.0975 65.9178 53.2175 67.9338C54.3748 69.9498 55.8868 71.4618 57.7535 72.4698C59.6575 73.4405 61.7108 73.9258 63.9135 73.9258ZM96.9273 72.9738L108.127 45.3098H110.815L98.2153 75.7178H95.5833L82.9833 45.3098H85.7272L96.9273 72.9738ZM117.661 38.5338C117.064 38.5338 116.56 38.3472 116.149 37.9738C115.739 37.5632 115.533 37.0218 115.533 36.3498C115.533 35.7152 115.739 35.1925 116.149 34.7818C116.56 34.3712 117.064 34.1658 117.661 34.1658C118.259 34.1658 118.763 34.3712 119.173 34.7818C119.584 35.1925 119.789 35.7152 119.789 36.3498C119.789 37.0218 119.584 37.5632 119.173 37.9738C118.763 38.3472 118.259 38.5338 117.661 38.5338ZM118.893 45.3098V75.7178H116.373V45.3098H118.893ZM156.467 59.5898C156.467 60.4858 156.411 61.4192 156.299 62.3898H134.627C134.776 64.3312 135.392 65.8245 136.475 66.8698C137.595 67.8778 138.958 68.3818 140.563 68.3818C142.952 68.3818 144.614 67.3738 145.547 65.3578H155.739C155.216 67.4112 154.264 69.2592 152.883 70.9018C151.539 72.5445 149.84 73.8325 147.787 74.7658C145.734 75.6992 143.438 76.1658 140.899 76.1658C137.838 76.1658 135.112 75.5125 132.723 74.2058C130.334 72.8992 128.467 71.0325 127.123 68.6058C125.779 66.1792 125.107 63.3418 125.107 60.0938C125.107 56.8458 125.76 54.0085 127.067 51.5818C128.411 49.1552 130.278 47.2885 132.667 45.9818C135.056 44.6752 137.8 44.0218 140.899 44.0218C143.923 44.0218 146.611 44.6565 148.963 45.9258C151.315 47.1952 153.144 49.0058 154.451 51.3578C155.795 53.7098 156.467 56.4538 156.467 59.5898ZM146.667 57.0698C146.667 55.4272 146.107 54.1205 144.987 53.1498C143.867 52.1792 142.467 51.6938 140.787 51.6938C139.182 51.6938 137.819 52.1605 136.699 53.0938C135.616 54.0272 134.944 55.3525 134.683 57.0698H146.667ZM171.095 34.2778V75.7178H161.519V34.2778H171.095ZM182.851 41.2218C181.171 41.2218 179.789 40.7365 178.707 39.7658C177.661 38.7578 177.139 37.5258 177.139 36.0698C177.139 34.5765 177.661 33.3445 178.707 32.3738C179.789 31.3658 181.171 30.8618 182.851 30.8618C184.493 30.8618 185.837 31.3658 186.883 32.3738C187.965 33.3445 188.507 34.5765 188.507 36.0698C188.507 37.5258 187.965 38.7578 186.883 39.7658C185.837 40.7365 184.493 41.2218 182.851 41.2218ZM187.611 44.4698V75.7178H178.035V44.4698H187.611ZM206.422 44.0218C208.625 44.0218 210.547 44.4698 212.19 45.3658C213.87 46.2618 215.158 47.4378 216.054 48.8938V44.4698H225.63V75.6618C225.63 78.5365 225.051 81.1312 223.894 83.4458C222.774 85.7978 221.038 87.6645 218.686 89.0458C216.371 90.4272 213.478 91.1178 210.006 91.1178C205.377 91.1178 201.625 90.0165 198.75 87.8138C195.875 85.6485 194.233 82.6992 193.822 78.9658H203.286C203.585 80.1605 204.294 81.0938 205.414 81.7658C206.534 82.4752 207.915 82.8298 209.558 82.8298C211.537 82.8298 213.105 82.2512 214.262 81.0938C215.457 79.9738 216.054 78.1632 216.054 75.6618V71.2378C215.121 72.6938 213.833 73.8885 212.19 74.8218C210.547 75.7178 208.625 76.1658 206.422 76.1658C203.846 76.1658 201.513 75.5125 199.422 74.2058C197.331 72.8618 195.67 70.9765 194.438 68.5498C193.243 66.0858 192.646 63.2485 192.646 60.0378C192.646 56.8272 193.243 54.0085 194.438 51.5818C195.67 49.1552 197.331 47.2885 199.422 45.9818C201.513 44.6752 203.846 44.0218 206.422 44.0218ZM216.054 60.0938C216.054 57.7045 215.382 55.8192 214.038 54.4378C212.731 53.0565 211.126 52.3658 209.222 52.3658C207.318 52.3658 205.694 53.0565 204.35 54.4378C203.043 55.7818 202.39 57.6485 202.39 60.0378C202.39 62.4272 203.043 64.3312 204.35 65.7498C205.694 67.1312 207.318 67.8218 209.222 67.8218C211.126 67.8218 212.731 67.1312 214.038 65.7498C215.382 64.3685 216.054 62.4832 216.054 60.0938ZM262.014 59.5898C262.014 60.4858 261.958 61.4192 261.846 62.3898H240.174C240.323 64.3312 240.939 65.8245 242.022 66.8698C243.142 67.8778 244.505 68.3818 246.11 68.3818C248.499 68.3818 250.161 67.3738 251.094 65.3578H261.286C260.763 67.4112 259.811 69.2592 258.43 70.9018C257.086 72.5445 255.387 73.8325 253.334 74.7658C251.281 75.6992 248.985 76.1658 246.446 76.1658C243.385 76.1658 240.659 75.5125 238.27 74.2058C235.881 72.8992 234.014 71.0325 232.67 68.6058C231.326 66.1792 230.654 63.3418 230.654 60.0938C230.654 56.8458 231.307 54.0085 232.614 51.5818C233.958 49.1552 235.825 47.2885 238.214 45.9818C240.603 44.6752 243.347 44.0218 246.446 44.0218C249.47 44.0218 252.158 44.6565 254.51 45.9258C256.862 47.1952 258.691 49.0058 259.998 51.3578C261.342 53.7098 262.014 56.4538 262.014 59.5898ZM252.214 57.0698C252.214 55.4272 251.654 54.1205 250.534 53.1498C249.414 52.1792 248.014 51.6938 246.334 51.6938C244.729 51.6938 243.366 52.1605 242.246 53.0938C241.163 54.0272 240.491 55.3525 240.23 57.0698H252.214ZM286.106 44.1338C289.764 44.1338 292.676 45.3285 294.842 47.7178C297.044 50.0698 298.146 53.3178 298.146 57.4618V75.7178H288.626V58.7498C288.626 56.6592 288.084 55.0352 287.002 53.8778C285.919 52.7205 284.463 52.1418 282.634 52.1418C280.804 52.1418 279.348 52.7205 278.266 53.8778C277.183 55.0352 276.642 56.6592 276.642 58.7498V75.7178H267.066V44.4698H276.642V48.6138C277.612 47.2325 278.919 46.1498 280.562 45.3658C282.204 44.5445 284.052 44.1338 286.106 44.1338ZM322.216 67.5978V75.7178H317.344C313.872 75.7178 311.165 74.8778 309.224 73.1978C307.283 71.4805 306.312 68.6992 306.312 64.8538V52.4218H302.504V44.4698H306.312V36.8538H315.888V44.4698H322.16V52.4218H315.888V64.9658C315.888 65.8992 316.112 66.5712 316.56 66.9818C317.008 67.3925 317.755 67.5978 318.8 67.5978H322.216Z" fill="white"/>
<path fill-rule="evenodd" clip-rule="evenodd" d="M289.708 25.3652L289.453 25.0914C288.313 23.8678 286.977 23.0113 285.561 22.4962C295.801 10.945 312.041 5.47997 327.965 9.74697C350.411 15.7614 363.732 38.8331 357.717 61.2791C355.313 70.253 350.182 77.7683 343.454 83.1725C343.234 82.8753 342.995 82.5875 342.737 82.3109L340.085 79.4634C346.128 74.6885 350.741 67.9964 352.888 59.985C358.187 40.2063 346.45 19.8763 326.671 14.5766C312.845 10.872 298.75 15.4925 289.708 25.3652Z" fill="url(#paint0_linear_14_2)"/>
<path d="M7.56 23.112C6.83467 23.112 6.2 22.984 5.656 22.728C5.112 22.472 4.68533 22.1253 4.376 21.688C4.07733 21.2507 3.90667 20.7653 3.864 20.232H4.616C4.70133 20.8187 4.97333 21.3413 5.432 21.8C5.90133 22.2587 6.61067 22.488 7.56 22.488C8.11467 22.488 8.59467 22.3867 9 22.184C9.416 21.9813 9.736 21.704 9.96 21.352C10.184 21 10.296 20.6107 10.296 20.184C10.296 19.64 10.1627 19.208 9.896 18.888C9.64 18.568 9.31467 18.328 8.92 18.168C8.536 18.008 8.01333 17.8373 7.352 17.656C6.62667 17.464 6.04 17.272 5.592 17.08C5.15467 16.888 4.78133 16.5947 4.472 16.2C4.17333 15.7947 4.024 15.2453 4.024 14.552C4.024 14.0187 4.16267 13.5333 4.44 13.096C4.728 12.648 5.13333 12.296 5.656 12.04C6.17867 11.784 6.78133 11.656 7.464 11.656C8.456 11.656 9.256 11.9013 9.864 12.392C10.472 12.8827 10.8347 13.4853 10.952 14.2H10.184C10.12 13.912 9.976 13.6187 9.752 13.32C9.53867 13.0213 9.22933 12.776 8.824 12.584C8.42933 12.3813 7.95467 12.28 7.4 12.28C6.65333 12.28 6.024 12.488 5.512 12.904C5 13.3093 4.744 13.8533 4.744 14.536C4.744 15.08 4.87733 15.5173 5.144 15.848C5.41067 16.168 5.736 16.4133 6.12 16.584C6.51467 16.744 7.04267 16.9093 7.704 17.08C8.44 17.2827 9.02133 17.48 9.448 17.672C9.88533 17.8533 10.2533 18.1467 10.552 18.552C10.8613 18.9467 11.016 19.4853 11.016 20.168C11.016 20.6693 10.8827 21.144 10.616 21.592C10.3493 22.04 9.95467 22.408 9.432 22.696C8.92 22.9733 8.296 23.112 7.56 23.112ZM21.4754 18.072C21.4754 18.456 21.4647 18.744 21.4434 18.936H13.9394C13.9607 19.7147 14.1314 20.3707 14.4514 20.904C14.7714 21.4373 15.1927 21.8373 15.7154 22.104C16.238 22.3707 16.8087 22.504 17.4274 22.504C18.2807 22.504 18.9954 22.296 19.5714 21.88C20.1474 21.4533 20.51 20.8773 20.6594 20.152H21.4114C21.2407 21.0373 20.8034 21.7573 20.0994 22.312C19.3954 22.856 18.5047 23.128 17.4274 23.128C16.6167 23.128 15.8914 22.9467 15.2514 22.584C14.6114 22.2213 14.11 21.704 13.7474 21.032C13.3847 20.3493 13.2034 19.5547 13.2034 18.648C13.2034 17.7413 13.3794 16.952 13.7314 16.28C14.094 15.608 14.5954 15.096 15.2354 14.744C15.8754 14.3813 16.606 14.2 17.4274 14.2C18.2594 14.2 18.9794 14.3813 19.5874 14.744C20.206 15.096 20.6754 15.5707 20.9954 16.168C21.3154 16.7547 21.4754 17.3893 21.4754 18.072ZM20.7554 18.344C20.7874 17.576 20.6487 16.9253 20.3394 16.392C20.0407 15.8587 19.63 15.464 19.1074 15.208C18.5847 14.9413 18.0194 14.808 17.4114 14.808C16.8034 14.808 16.238 14.9413 15.7154 15.208C15.2034 15.464 14.782 15.8587 14.4514 16.392C14.1314 16.9253 13.9607 17.576 13.9394 18.344H20.7554ZM23.6834 18.648C23.6834 17.752 23.8594 16.968 24.2114 16.296C24.574 15.624 25.07 15.1067 25.6994 14.744C26.3394 14.3813 27.0647 14.2 27.8754 14.2C28.7927 14.2 29.5714 14.424 30.2114 14.872C30.8514 15.32 31.2994 15.8907 31.5554 16.584V14.312H32.2754V23H31.5554V20.712C31.2994 21.416 30.846 21.9973 30.1954 22.456C29.5554 22.904 28.782 23.128 27.8754 23.128C27.0647 23.128 26.3394 22.9467 25.6994 22.584C25.07 22.2107 24.574 21.688 24.2114 21.016C23.8594 20.3333 23.6834 19.544 23.6834 18.648ZM31.5554 18.648C31.5554 17.8907 31.3954 17.224 31.0754 16.648C30.766 16.0613 30.3394 15.6133 29.7954 15.304C29.2514 14.984 28.6434 14.824 27.9714 14.824C27.2674 14.824 26.6487 14.9787 26.1154 15.288C25.582 15.5867 25.166 16.024 24.8674 16.6C24.5687 17.176 24.4194 17.8587 24.4194 18.648C24.4194 19.4373 24.5687 20.12 24.8674 20.696C25.166 21.272 25.582 21.7147 26.1154 22.024C26.6594 22.3333 27.278 22.488 27.9714 22.488C28.6434 22.488 29.2514 22.3333 29.7954 22.024C30.35 21.704 30.782 21.256 31.0914 20.68C31.4007 20.0933 31.5554 19.416 31.5554 18.648ZM36.097 16.104C36.3103 15.464 36.689 14.9787 37.233 14.648C37.777 14.3067 38.4703 14.136 39.313 14.136V14.888H39.073C38.2197 14.888 37.5103 15.1333 36.945 15.624C36.3797 16.104 36.097 16.8933 36.097 17.992V23H35.377V14.312H36.097V16.104ZM41.0027 18.648C41.0027 17.7413 41.1787 16.952 41.5307 16.28C41.8934 15.608 42.3894 15.096 43.0187 14.744C43.6587 14.3813 44.3894 14.2 45.2107 14.2C46.2987 14.2 47.1894 14.472 47.8827 15.016C48.5867 15.56 49.0241 16.2907 49.1947 17.208H48.4427C48.3041 16.4613 47.9414 15.8747 47.3547 15.448C46.7787 15.0213 46.0641 14.808 45.2107 14.808C44.5707 14.808 43.9894 14.952 43.4667 15.24C42.9441 15.5173 42.5227 15.9493 42.2027 16.536C41.8934 17.112 41.7387 17.816 41.7387 18.648C41.7387 19.4907 41.8934 20.2 42.2027 20.776C42.5227 21.352 42.9441 21.784 43.4667 22.072C43.9894 22.36 44.5707 22.504 45.2107 22.504C46.0641 22.504 46.7787 22.2907 47.3547 21.864C47.9414 21.4373 48.3041 20.8507 48.4427 20.104H49.1947C49.0241 21.0107 48.5867 21.7413 47.8827 22.296C47.1787 22.8507 46.2881 23.128 45.2107 23.128C44.3894 23.128 43.6587 22.9467 43.0187 22.584C42.3894 22.2213 41.8934 21.704 41.5307 21.032C41.1787 20.3493 41.0027 19.5547 41.0027 18.648ZM55.8043 14.136C56.8283 14.136 57.6656 14.456 58.3163 15.096C58.9669 15.7253 59.2923 16.664 59.2923 17.912V23H58.5883V17.96C58.5883 16.9253 58.3269 16.136 57.8043 15.592C57.2816 15.0373 56.5723 14.76 55.6763 14.76C54.7376 14.76 53.9856 15.0587 53.4203 15.656C52.8656 16.2533 52.5883 17.1387 52.5883 18.312V23H51.8683V11.16H52.5883V16.152C52.8336 15.5013 53.2443 15.0053 53.8203 14.664C54.3963 14.312 55.0576 14.136 55.8043 14.136ZM70.6246 14.952H68.3686V23H67.6486V14.952H66.3366V14.312H67.6486V13.704C67.6486 12.7973 67.878 12.1253 68.3366 11.688C68.7953 11.24 69.5473 11.016 70.5926 11.016V11.656C69.7606 11.656 69.1793 11.816 68.8486 12.136C68.5286 12.456 68.3686 12.9787 68.3686 13.704V14.312H70.6246V14.952ZM73.6689 16.104C73.8822 15.464 74.2609 14.9787 74.8049 14.648C75.3489 14.3067 76.0422 14.136 76.8849 14.136V14.888H76.6449C75.7915 14.888 75.0822 15.1333 74.5169 15.624C73.9515 16.104 73.6689 16.8933 73.6689 17.992V23H72.9489V14.312H73.6689V16.104ZM82.8466 23.128C82.036 23.128 81.3053 22.9467 80.6546 22.584C80.004 22.2213 79.492 21.704 79.1186 21.032C78.756 20.3493 78.5746 19.5547 78.5746 18.648C78.5746 17.752 78.7613 16.968 79.1346 16.296C79.508 15.6133 80.02 15.096 80.6706 14.744C81.332 14.3813 82.068 14.2 82.8786 14.2C83.6893 14.2 84.42 14.3813 85.0706 14.744C85.7213 15.096 86.228 15.608 86.5906 16.28C86.964 16.952 87.1506 17.7413 87.1506 18.648C87.1506 19.5547 86.964 20.3493 86.5906 21.032C86.2173 21.704 85.7 22.2213 85.0386 22.584C84.388 22.9467 83.6573 23.128 82.8466 23.128ZM82.8466 22.488C83.476 22.488 84.0626 22.3493 84.6066 22.072C85.1613 21.784 85.604 21.352 85.9346 20.776C86.2653 20.2 86.4306 19.4907 86.4306 18.648C86.4306 17.816 86.2653 17.112 85.9346 16.536C85.604 15.96 85.1666 15.5333 84.6226 15.256C84.0786 14.968 83.492 14.824 82.8626 14.824C82.2333 14.824 81.6466 14.968 81.1026 15.256C80.5693 15.5333 80.1373 15.96 79.8066 16.536C79.476 17.112 79.3106 17.816 79.3106 18.648C79.3106 19.4907 79.4706 20.2 79.7906 20.776C80.1213 21.352 80.5533 21.784 81.0866 22.072C81.6306 22.3493 82.2173 22.488 82.8466 22.488ZM100.087 14.136C101.079 14.136 101.89 14.456 102.519 15.096C103.148 15.7253 103.463 16.664 103.463 17.912V23H102.759V17.96C102.759 16.9253 102.508 16.136 102.007 15.592C101.516 15.0373 100.839 14.76 99.9751 14.76C99.0791 14.76 98.3591 15.0693 97.8151 15.688C97.2711 16.3067 96.9991 17.2027 96.9991 18.376V23H96.2951V17.96C96.2951 16.9253 96.0445 16.136 95.5431 15.592C95.0525 15.0373 94.3751 14.76 93.5111 14.76C92.6151 14.76 91.8951 15.0693 91.3511 15.688C90.8071 16.3067 90.5351 17.2027 90.5351 18.376V23H89.8151V14.312H90.5351V16.2C90.7805 15.5173 91.1751 15.0053 91.7191 14.664C92.2738 14.312 92.9085 14.136 93.6231 14.136C94.4125 14.136 95.0898 14.344 95.6551 14.76C96.2311 15.1653 96.6258 15.768 96.8391 16.568C97.0418 15.768 97.4365 15.1653 98.0231 14.76C98.6098 14.344 99.2978 14.136 100.087 14.136ZM115.43 14.136C116.454 14.136 117.291 14.456 117.942 15.096C118.593 15.7253 118.918 16.664 118.918 17.912V23H118.214V17.96C118.214 16.9253 117.953 16.136 117.43 15.592C116.907 15.0373 116.198 14.76 115.302 14.76C114.363 14.76 113.611 15.0587 113.046 15.656C112.491 16.2533 112.214 17.1387 112.214 18.312V23H111.494V11.16H112.214V16.152C112.459 15.5013 112.87 15.0053 113.446 14.664C114.022 14.312 114.683 14.136 115.43 14.136ZM129.287 14.312V23H128.567V21.112C128.321 21.7733 127.911 22.28 127.335 22.632C126.769 22.9733 126.119 23.144 125.383 23.144C124.348 23.144 123.5 22.8293 122.839 22.2C122.188 21.56 121.863 20.616 121.863 19.368V14.312H122.567V19.32C122.567 20.3547 122.828 21.1493 123.351 21.704C123.873 22.248 124.583 22.52 125.479 22.52C126.417 22.52 127.164 22.2213 127.719 21.624C128.284 21.0267 128.567 20.1413 128.567 18.968V14.312H129.287ZM136.311 14.136C137.346 14.136 138.189 14.456 138.839 15.096C139.49 15.7253 139.815 16.664 139.815 17.912V23H139.111V17.96C139.111 16.9253 138.85 16.136 138.327 15.592C137.805 15.0373 137.095 14.76 136.199 14.76C135.261 14.76 134.509 15.0587 133.943 15.656C133.389 16.2533 133.111 17.1387 133.111 18.312V23H132.391V14.312H133.111V16.152C133.357 15.5013 133.762 15.0053 134.327 14.664C134.903 14.312 135.565 14.136 136.311 14.136ZM142.392 18.648C142.392 17.752 142.568 16.968 142.92 16.296C143.283 15.624 143.779 15.1067 144.408 14.744C145.048 14.3813 145.773 14.2 146.584 14.2C147.469 14.2 148.237 14.424 148.888 14.872C149.539 15.3093 149.997 15.88 150.264 16.584V11.16H150.984V23H150.264V20.696C150.008 21.4107 149.56 21.9973 148.92 22.456C148.28 22.904 147.501 23.128 146.584 23.128C145.773 23.128 145.048 22.9467 144.408 22.584C143.779 22.2107 143.283 21.688 142.92 21.016C142.568 20.3333 142.392 19.544 142.392 18.648ZM150.264 18.648C150.264 17.8907 150.104 17.224 149.784 16.648C149.475 16.0613 149.048 15.6133 148.504 15.304C147.96 14.984 147.352 14.824 146.68 14.824C145.976 14.824 145.357 14.9787 144.824 15.288C144.291 15.5867 143.875 16.024 143.576 16.6C143.277 17.176 143.128 17.8587 143.128 18.648C143.128 19.4373 143.277 20.12 143.576 20.696C143.875 21.272 144.291 21.7147 144.824 22.024C145.368 22.3333 145.987 22.488 146.68 22.488C147.352 22.488 147.96 22.3333 148.504 22.024C149.059 21.704 149.491 21.256 149.8 20.68C150.109 20.0933 150.264 19.416 150.264 18.648ZM154.806 16.104C155.019 15.464 155.398 14.9787 155.942 14.648C156.486 14.3067 157.179 14.136 158.022 14.136V14.888H157.782C156.928 14.888 156.219 15.1333 155.654 15.624C155.088 16.104 154.806 16.8933 154.806 17.992V23H154.086V14.312H154.806V16.104ZM167.984 18.072C167.984 18.456 167.973 18.744 167.952 18.936L160.448 18.936C160.469 19.7147 160.64 20.3707 160.96 20.904C161.28 21.4373 161.701 21.8373 162.224 22.104C162.746 22.3707 163.317 22.504 163.936 22.504C164.789 22.504 165.504 22.296 166.08 21.88C166.656 21.4533 167.018 20.8773 167.168 20.152H167.92C167.749 21.0373 167.312 21.7573 166.608 22.312C165.904 22.856 165.013 23.128 163.936 23.128C163.125 23.128 162.4 22.9467 161.76 22.584C161.12 22.2213 160.618 21.704 160.256 21.032C159.893 20.3493 159.712 19.5547 159.712 18.648C159.712 17.7413 159.888 16.952 160.24 16.28C160.602 15.608 161.104 15.096 161.744 14.744C162.384 14.3813 163.114 14.2 163.936 14.2C164.768 14.2 165.488 14.3813 166.096 14.744C166.714 15.096 167.184 15.5707 167.504 16.168C167.824 16.7547 167.984 17.3893 167.984 18.072ZM167.264 18.344C167.296 17.576 167.157 16.9253 166.848 16.392C166.549 15.8587 166.138 15.464 165.616 15.208C165.093 14.9413 164.528 14.808 163.92 14.808C163.312 14.808 162.746 14.9413 162.224 15.208C161.712 15.464 161.29 15.8587 160.96 16.392C160.64 16.9253 160.469 17.576 160.448 18.344L167.264 18.344ZM170.191 18.648C170.191 17.752 170.367 16.968 170.719 16.296C171.082 15.624 171.578 15.1067 172.207 14.744C172.847 14.3813 173.573 14.2 174.383 14.2C175.269 14.2 176.037 14.424 176.687 14.872C177.338 15.3093 177.797 15.88 178.063 16.584V11.16H178.783V23H178.063V20.696C177.807 21.4107 177.359 21.9973 176.719 22.456C176.079 22.904 175.301 23.128 174.383 23.128C173.573 23.128 172.847 22.9467 172.207 22.584C171.578 22.2107 171.082 21.688 170.719 21.016C170.367 20.3333 170.191 19.544 170.191 18.648ZM178.063 18.648C178.063 17.8907 177.903 17.224 177.583 16.648C177.274 16.0613 176.847 15.6133 176.303 15.304C175.759 14.984 175.151 14.824 174.479 14.824C173.775 14.824 173.157 14.9787 172.623 15.288C172.09 15.5867 171.674 16.024 171.375 16.6C171.077 17.176 170.927 17.8587 170.927 18.648C170.927 19.4373 171.077 20.12 171.375 20.696C171.674 21.272 172.09 21.7147 172.623 22.024C173.167 22.3333 173.786 22.488 174.479 22.488C175.151 22.488 175.759 22.3333 176.303 22.024C176.858 21.704 177.29 21.256 177.599 20.68C177.909 20.0933 178.063 19.416 178.063 18.648ZM184.781 23.128C183.81 23.128 183.016 22.9147 182.397 22.488C181.789 22.0613 181.448 21.4533 181.373 20.664H182.109C182.162 21.2293 182.418 21.6773 182.877 22.008C183.346 22.3387 183.981 22.504 184.781 22.504C185.442 22.504 185.965 22.3387 186.349 22.008C186.744 21.6667 186.941 21.2507 186.941 20.76C186.941 20.4187 186.834 20.1413 186.621 19.928C186.418 19.704 186.162 19.5333 185.853 19.416C185.544 19.2987 185.122 19.1707 184.589 19.032C183.949 18.8613 183.432 18.696 183.037 18.536C182.642 18.3653 182.306 18.1147 182.029 17.784C181.752 17.4533 181.613 17.0107 181.613 16.456C181.613 16.0507 181.736 15.6773 181.981 15.336C182.226 14.984 182.568 14.7067 183.005 14.504C183.442 14.3013 183.938 14.2 184.493 14.2C185.4 14.2 186.13 14.4293 186.685 14.888C187.25 15.336 187.554 15.96 187.597 16.76H186.877C186.845 16.184 186.621 15.7147 186.205 15.352C185.789 14.9893 185.213 14.808 184.477 14.808C183.858 14.808 183.346 14.968 182.941 15.288C182.536 15.608 182.333 15.9973 182.333 16.456C182.333 16.8613 182.445 17.192 182.669 17.448C182.904 17.6933 183.186 17.8853 183.517 18.024C183.858 18.152 184.306 18.2907 184.861 18.44C185.469 18.6 185.954 18.76 186.317 18.92C186.69 19.0693 187.005 19.2933 187.261 19.592C187.517 19.88 187.645 20.2693 187.645 20.76C187.645 21.208 187.522 21.6133 187.277 21.976C187.032 22.3387 186.69 22.6213 186.253 22.824C185.816 23.0267 185.325 23.128 184.781 23.128ZM199.138 23.128C198.327 23.128 197.597 22.9467 196.946 22.584C196.295 22.2213 195.783 21.704 195.41 21.032C195.047 20.3493 194.866 19.5547 194.866 18.648C194.866 17.752 195.053 16.968 195.426 16.296C195.799 15.6133 196.311 15.096 196.962 14.744C197.623 14.3813 198.359 14.2 199.17 14.2C199.981 14.2 200.711 14.3813 201.362 14.744C202.013 15.096 202.519 15.608 202.882 16.28C203.255 16.952 203.442 17.7413 203.442 18.648C203.442 19.5547 203.255 20.3493 202.882 21.032C202.509 21.704 201.991 22.2213 201.33 22.584C200.679 22.9467 199.949 23.128 199.138 23.128ZM199.138 22.488C199.767 22.488 200.354 22.3493 200.898 22.072C201.453 21.784 201.895 21.352 202.226 20.776C202.557 20.2 202.722 19.4907 202.722 18.648C202.722 17.816 202.557 17.112 202.226 16.536C201.895 15.96 201.458 15.5333 200.914 15.256C200.37 14.968 199.783 14.824 199.154 14.824C198.525 14.824 197.938 14.968 197.394 15.256C196.861 15.5333 196.429 15.96 196.098 16.536C195.767 17.112 195.602 17.816 195.602 18.648C195.602 19.4907 195.762 20.2 196.082 20.776C196.413 21.352 196.845 21.784 197.378 22.072C197.922 22.3493 198.509 22.488 199.138 22.488ZM209.418 14.952H207.162V23H206.442V14.952H205.13V14.312H206.442V13.704C206.442 12.7973 206.672 12.1253 207.13 11.688C207.589 11.24 208.341 11.016 209.386 11.016V11.656C208.554 11.656 207.973 11.816 207.642 12.136C207.322 12.456 207.162 12.9787 207.162 13.704V14.312H209.418V14.952ZM227.01 14.136C228.002 14.136 228.813 14.456 229.442 15.096C230.072 15.7253 230.386 16.664 230.386 17.912V23H229.682V17.96C229.682 16.9253 229.432 16.136 228.93 15.592C228.44 15.0373 227.762 14.76 226.898 14.76C226.002 14.76 225.282 15.0693 224.738 15.688C224.194 16.3067 223.922 17.2027 223.922 18.376V23H223.218V17.96C223.218 16.9253 222.968 16.136 222.466 15.592C221.976 15.0373 221.298 14.76 220.434 14.76C219.538 14.76 218.818 15.0693 218.274 15.688C217.73 16.3067 217.458 17.2027 217.458 18.376V23H216.738V14.312H217.458V16.2C217.704 15.5173 218.098 15.0053 218.642 14.664C219.197 14.312 219.832 14.136 220.546 14.136C221.336 14.136 222.013 14.344 222.578 14.76C223.154 15.1653 223.549 15.768 223.762 16.568C223.965 15.768 224.36 15.1653 224.946 14.76C225.533 14.344 226.221 14.136 227.01 14.136ZM237.245 23.128C236.435 23.128 235.704 22.9467 235.053 22.584C234.403 22.2213 233.891 21.704 233.517 21.032C233.155 20.3493 232.973 19.5547 232.973 18.648C232.973 17.752 233.16 16.968 233.533 16.296C233.907 15.6133 234.419 15.096 235.069 14.744C235.731 14.3813 236.467 14.2 237.277 14.2C238.088 14.2 238.819 14.3813 239.469 14.744C240.12 15.096 240.627 15.608 240.989 16.28C241.363 16.952 241.549 17.7413 241.549 18.648C241.549 19.5547 241.363 20.3493 240.989 21.032C240.616 21.704 240.099 22.2213 239.437 22.584C238.787 22.9467 238.056 23.128 237.245 23.128ZM237.245 22.488C237.875 22.488 238.461 22.3493 239.005 22.072C239.56 21.784 240.003 21.352 240.333 20.776C240.664 20.2 240.829 19.4907 240.829 18.648C240.829 17.816 240.664 17.112 240.333 16.536C240.003 15.96 239.565 15.5333 239.021 15.256C238.477 14.968 237.891 14.824 237.261 14.824C236.632 14.824 236.045 14.968 235.501 15.256C234.968 15.5333 234.536 15.96 234.205 16.536C233.875 17.112 233.709 17.816 233.709 18.648C233.709 19.4907 233.869 20.2 234.189 20.776C234.52 21.352 234.952 21.784 235.485 22.072C236.029 22.3493 236.616 22.488 237.245 22.488ZM247.158 22.216L250.358 14.312H251.126L247.526 23H246.774L243.174 14.312H243.958L247.158 22.216ZM253.562 12.376C253.391 12.376 253.247 12.3227 253.13 12.216C253.013 12.0987 252.954 11.944 252.954 11.752C252.954 11.5707 253.013 11.4213 253.13 11.304C253.247 11.1867 253.391 11.128 253.562 11.128C253.733 11.128 253.877 11.1867 253.994 11.304C254.111 11.4213 254.17 11.5707 254.17 11.752C254.17 11.944 254.111 12.0987 253.994 12.216C253.877 12.3227 253.733 12.376 253.562 12.376ZM253.914 14.312V23H253.194V14.312H253.914ZM264.857 18.072C264.857 18.456 264.847 18.744 264.825 18.936H257.321C257.343 19.7147 257.513 20.3707 257.833 20.904C258.153 21.4373 258.575 21.8373 259.097 22.104C259.62 22.3707 260.191 22.504 260.809 22.504C261.663 22.504 262.377 22.296 262.953 21.88C263.529 21.4533 263.892 20.8773 264.041 20.152H264.793C264.623 21.0373 264.185 21.7573 263.481 22.312C262.777 22.856 261.887 23.128 260.809 23.128C259.999 23.128 259.273 22.9467 258.633 22.584C257.993 22.2213 257.492 21.704 257.129 21.032C256.767 20.3493 256.585 19.5547 256.585 18.648C256.585 17.7413 256.761 16.952 257.113 16.28C257.476 15.608 257.977 15.096 258.617 14.744C259.257 14.3813 259.988 14.2 260.809 14.2C261.641 14.2 262.361 14.3813 262.969 14.744C263.588 15.096 264.057 15.5707 264.377 16.168C264.697 16.7547 264.857 17.3893 264.857 18.072ZM264.137 18.344C264.169 17.576 264.031 16.9253 263.721 16.392C263.423 15.8587 263.012 15.464 262.489 15.208C261.967 14.9413 261.401 14.808 260.793 14.808C260.185 14.808 259.62 14.9413 259.097 15.208C258.585 15.464 258.164 15.8587 257.833 16.392C257.513 16.9253 257.343 17.576 257.321 18.344H264.137ZM270.409 23.128C269.439 23.128 268.644 22.9147 268.025 22.488C267.417 22.0613 267.076 21.4533 267.001 20.664H267.737C267.791 21.2293 268.047 21.6773 268.505 22.008C268.975 22.3387 269.609 22.504 270.409 22.504C271.071 22.504 271.593 22.3387 271.977 22.008C272.372 21.6667 272.569 21.2507 272.569 20.76C272.569 20.4187 272.463 20.1413 272.249 19.928C272.047 19.704 271.791 19.5333 271.481 19.416C271.172 19.2987 270.751 19.1707 270.217 19.032C269.577 18.8613 269.06 18.696 268.665 18.536C268.271 18.3653 267.935 18.1147 267.657 17.784C267.38 17.4533 267.241 17.0107 267.241 16.456C267.241 16.0507 267.364 15.6773 267.609 15.336C267.855 14.984 268.196 14.7067 268.633 14.504C269.071 14.3013 269.567 14.2 270.121 14.2C271.028 14.2 271.759 14.4293 272.313 14.888C272.879 15.336 273.183 15.96 273.225 16.76H272.505C272.473 16.184 272.249 15.7147 271.833 15.352C271.417 14.9893 270.841 14.808 270.105 14.808C269.487 14.808 268.975 14.968 268.569 15.288C268.164 15.608 267.961 15.9973 267.961 16.456C267.961 16.8613 268.073 17.192 268.297 17.448C268.532 17.6933 268.815 17.8853 269.145 18.024C269.487 18.152 269.935 18.2907 270.489 18.44C271.097 18.6 271.583 18.76 271.945 18.92C272.319 19.0693 272.633 19.2933 272.889 19.592C273.145 19.88 273.273 20.2693 273.273 20.76C273.273 21.208 273.151 21.6133 272.905 21.976C272.66 22.3387 272.319 22.6213 271.881 22.824C271.444 23.0267 270.953 23.128 270.409 23.128ZM275.834 23.048C275.653 23.048 275.504 22.9893 275.386 22.872C275.269 22.7547 275.21 22.6053 275.21 22.424C275.21 22.2427 275.269 22.0933 275.386 21.976C275.504 21.8587 275.653 21.8 275.834 21.8C276.005 21.8 276.149 21.8587 276.266 21.976C276.384 22.0933 276.442 22.2427 276.442 22.424C276.442 22.6053 276.384 22.7547 276.266 22.872C276.149 22.9893 276.005 23.048 275.834 23.048Z" fill="#9B9B9B"/>
<defs>
<linearGradient id="paint0_linear_14_2" x1="296.058" y1="10.9672" x2="336.64" y2="78.1096" gradientUnits="userSpaceOnUse">
<stop stop-color="#EF473A"/>
<stop offset="1" stop-color="#CB2D3E"/>
</linearGradient>
</defs>
</svg>
