<svg width="720" height="688" viewBox="0 0 720 688" fill="none" xmlns="http://www.w3.org/2000/svg">
<g clip-path="url(#clip0_16_2)">
<path d="M668.77 182.587V144H662.77V182.587C661.048 183.283 659.623 184.556 658.738 186.188C657.852 187.82 657.562 189.709 657.917 191.531C658.271 193.354 659.249 194.996 660.682 196.177C662.114 197.357 663.913 198.003 665.77 198.003C667.626 198.003 669.425 197.357 670.858 196.177C672.29 194.996 673.268 193.354 673.622 191.531C673.977 189.709 673.687 187.82 672.801 186.188C671.916 184.556 670.491 183.283 668.77 182.587Z" fill="#E6E6E6"/>
<path d="M682.77 572H641.77V74H625.77V572H584.769C579.911 572 575.099 572.957 570.61 574.816C566.121 576.676 562.042 579.401 558.607 582.837C555.171 586.273 552.445 590.352 550.586 594.841C548.727 599.33 547.77 604.141 547.77 609V609H719.77V609C719.77 604.141 718.813 599.33 716.953 594.841C715.094 590.352 712.368 586.273 708.932 582.837C705.497 579.401 701.418 576.676 696.929 574.816C692.44 572.957 687.628 572 682.77 572V572Z" fill="#3D3D3D"/>
<path d="M547.853 148H719.687L709.179 16.6597C708.795 12.1308 706.73 7.90958 703.39 4.82651C700.05 1.74343 695.678 0.0216901 691.133 0H576.406C571.861 0.0216925 567.489 1.74343 564.149 4.82651C560.809 7.90958 558.744 12.1308 558.36 16.6597L547.853 148Z" fill="#6D6D6D"/>
<path d="M61.0977 457.536H585.576V403.989C585.576 259.391 467.936 141.75 323.337 141.75C178.738 141.75 61.0977 259.391 61.0977 403.989V457.536Z" fill="#2A2A2A"/>
<path opacity="0.2" d="M61.0977 457.536H585.576V403.989C585.576 259.391 467.936 141.75 323.337 141.75C178.738 141.75 61.0977 259.391 61.0977 403.989V457.536Z" fill="black"/>
<path d="M129.072 476.071H532.705C532.321 454.835 523.622 434.598 508.477 419.707C493.332 404.817 472.95 396.462 451.711 396.438H210.066C188.827 396.462 168.445 404.817 153.3 419.707C138.155 434.598 129.456 454.835 129.072 476.071V476.071Z" fill="#383838"/>
<path d="M81.0059 467.833C125.744 467.833 162.012 431.565 162.012 386.827C162.012 342.089 125.744 305.821 81.0059 305.821C36.2676 305.821 0 342.089 0 386.827C0 431.565 36.2676 467.833 81.0059 467.833Z" fill="#2A2A2A"/>
<path d="M572.533 467.833C617.271 467.833 653.539 431.565 653.539 386.827C653.539 342.089 617.271 305.821 572.533 305.821C527.795 305.821 491.527 342.089 491.527 386.827C491.527 431.565 527.795 467.833 572.533 467.833Z" fill="#2A2A2A"/>
<path d="M511.435 428.017V458.222H137.298V428.017H53.5463V575.239C53.5463 584.259 57.1295 592.91 63.5078 599.288C69.8861 605.667 78.537 609.25 87.5573 609.25H561.176C565.643 609.25 570.065 608.37 574.192 606.661C578.318 604.952 582.067 602.447 585.226 599.289C588.384 596.13 590.889 592.381 592.598 588.255C594.307 584.128 595.187 579.705 595.187 575.239V428.017H511.435Z" fill="#2A2A2A"/>
<path opacity="0.2" d="M81.0058 403.303C90.1051 403.303 97.4816 395.926 97.4816 386.827C97.4816 377.728 90.1051 370.351 81.0058 370.351C71.9065 370.351 64.53 377.728 64.53 386.827C64.53 395.926 71.9065 403.303 81.0058 403.303Z" fill="black"/>
<path opacity="0.2" d="M572.533 403.303C581.632 403.303 589.009 395.926 589.009 386.827C589.009 377.728 581.632 370.351 572.533 370.351C563.434 370.351 556.057 377.728 556.057 386.827C556.057 395.926 563.434 403.303 572.533 403.303Z" fill="black"/>
<path d="M353.178 132.496C353.178 132.496 354.798 163.271 366.136 169.75C377.474 176.229 366.136 219.961 366.136 219.961L312.685 221.581L309.446 169.75C309.446 169.75 315.924 148.694 312.685 138.975C309.446 129.257 353.178 132.496 353.178 132.496Z" fill="#FFB8B8"/>
<path d="M413.107 560.102L393.671 582.778L424.446 611.933L440.643 579.539L413.107 560.102Z" fill="#FFB8B8"/>
<path d="M275.431 560.102L294.868 582.778L264.093 611.933L247.896 579.539L275.431 560.102Z" fill="#FFB8B8"/>
<path d="M402.579 345.49C402.579 345.49 519.199 384.363 512.72 421.616C506.241 458.87 456.03 590.067 456.03 590.067C456.03 590.067 428.495 590.067 407.438 560.912L422.016 528.518C422.016 528.518 415.537 510.701 426.875 507.461C438.213 504.222 444.692 447.532 444.692 447.532C444.692 447.532 362.086 441.053 344.269 410.278L311.875 332.532L402.579 345.49Z" fill="#181818"/>
<path d="M285.96 345.49C285.96 345.49 169.34 384.363 175.819 421.616C182.297 458.87 232.509 590.067 232.509 590.067C232.509 590.067 260.044 590.067 281.1 560.912L266.523 528.518C266.523 528.518 273.002 510.701 261.664 507.461C250.326 504.222 243.847 447.532 243.847 447.532C243.847 447.532 326.452 441.053 344.269 410.278L376.664 332.532L285.96 345.49Z" fill="#181818"/>
<path d="M418.777 599.785C418.777 599.785 434.974 585.208 436.593 596.546C438.213 607.884 434.974 653.236 434.974 653.236C434.974 653.236 451.171 687.25 426.875 687.25C402.579 687.25 391.241 661.334 394.481 635.419C397.72 609.503 383.143 599.785 383.143 599.785C383.143 599.785 365.326 564.151 383.143 560.912C400.96 557.673 407.439 565.771 407.439 565.771C407.439 565.771 400.96 594.926 418.777 599.785Z" fill="#222222"/>
<path d="M269.762 599.785C269.762 599.785 253.565 585.208 251.946 596.546C250.326 607.884 253.565 653.236 253.565 653.236C253.565 653.236 237.368 687.25 261.664 687.25C285.96 687.25 297.298 661.334 294.058 635.419C290.819 609.503 305.396 599.785 305.396 599.785C305.396 599.785 323.213 564.151 305.396 560.912C287.579 557.673 281.1 565.771 281.1 565.771C281.1 565.771 287.579 594.926 269.762 599.785Z" fill="#222222"/>
<path d="M328.072 151.123C348.647 151.123 365.326 134.444 365.326 113.87C365.326 93.2952 348.647 76.6162 328.072 76.6162C307.498 76.6162 290.819 93.2952 290.819 113.87C290.819 134.444 307.498 151.123 328.072 151.123Z" fill="#FFB8B8"/>
<path d="M333.741 177.849L311.065 160.032L255.995 185.947L254.375 333.342C254.375 333.342 220.361 349.539 230.079 370.595C230.079 370.595 259.234 377.074 272.192 390.032C285.15 402.989 358.037 385.173 388.812 375.454C419.586 365.736 427.685 354.398 427.685 354.398L396.91 310.666L414.727 198.905L359.663 161.884L333.741 177.849Z" fill="#E6E6E6"/>
<path d="M373.363 88.5141C372.551 87.4127 371.81 86.2615 371.142 85.0672C369.987 82.2539 371.812 78.9385 370.107 76.3115C368.366 73.6297 363.948 73.0642 360.942 71.2423C356.311 68.4357 355.469 62.9286 351.13 59.8358C348.004 57.6074 343.546 57.0067 339.369 57.1338C335.191 57.261 331.07 58.0162 326.89 58.0991C321.249 58.225 315.652 57.0804 310.513 54.75L313.596 60.7808C310.17 60.0341 306.897 58.7074 303.918 56.858C302.555 58.5494 305.05 61.1166 303.503 62.703C302.869 63.2148 302.119 63.5626 301.318 63.7159C295.372 65.4057 289.772 68.1375 284.781 71.7841C283.625 72.5191 282.669 73.5284 281.998 74.722C281.194 76.5029 281.907 78.4698 281.846 80.3634C281.735 83.8041 279.108 86.8044 277.244 89.9039C275.381 93.0035 274.374 97.0219 277.139 99.6526C277.811 100.187 278.456 100.756 279.07 101.356C281.84 104.623 276.937 109.408 279.3 112.875C280.326 114.38 282.429 115.142 284.257 116.031C287.758 117.668 290.704 120.294 292.732 123.584L291.311 113.156C291.236 112.898 291.223 112.627 291.272 112.363C291.321 112.099 291.431 111.851 291.594 111.637C292.282 110.936 293.723 111.215 294.673 110.751C295.718 110.24 295.797 109.067 295.755 108.085L295.436 100.514C295.292 97.1097 295.252 96.6576 297.759 93.9095C299.511 91.9895 302.267 90.8311 305.035 89.9792C311.36 88.0324 318.163 87.359 324.888 86.701C332.697 85.9368 341.49 82.1477 347.554 86.1707C352.518 89.4639 354.169 94.877 356.561 99.6777C358.711 103.993 364.229 116.698 368.822 109.82C371.707 105.501 376.12 93.323 373.363 88.5141Z" fill="#4B4B4B"/>
<path d="M334.468 103.063C334.314 103.063 334.167 103.124 334.059 103.233C333.95 103.341 333.889 103.488 333.889 103.642V119.239C333.889 119.392 333.95 119.539 334.059 119.648C334.167 119.756 334.314 119.817 334.468 119.817H361.317C361.471 119.817 361.618 119.756 361.727 119.648C361.835 119.539 361.896 119.392 361.896 119.239V103.642C361.896 103.488 361.835 103.341 361.727 103.233C361.618 103.124 361.471 103.063 361.317 103.063L334.468 103.063Z" fill="#4B4B4B"/>
<path d="M337.468 104.438C337.182 104.439 336.908 104.553 336.706 104.755C336.504 104.957 336.39 105.231 336.39 105.517V117.363C336.39 117.649 336.504 117.923 336.706 118.126C336.908 118.328 337.182 118.442 337.468 118.442H358.317C358.603 118.442 358.877 118.328 359.079 118.126C359.281 117.923 359.395 117.649 359.396 117.363V105.517C359.395 105.231 359.281 104.957 359.079 104.755C358.877 104.553 358.603 104.439 358.317 104.438H337.468Z" fill="#868686"/>
<path d="M334.769 108.201H320.783V111.44H334.769V108.201Z" fill="#2A2A2A"/>
<path d="M296.447 103.063C296.293 103.063 296.146 103.124 296.038 103.233C295.929 103.341 295.868 103.488 295.868 103.642V119.239C295.868 119.392 295.929 119.539 296.038 119.648C296.146 119.756 296.293 119.817 296.447 119.817H323.297C323.45 119.817 323.597 119.756 323.706 119.648C323.814 119.539 323.875 119.392 323.875 119.239V103.642C323.875 103.488 323.814 103.341 323.706 103.233C323.597 103.124 323.45 103.063 323.297 103.063L296.447 103.063Z" fill="#2A2A2A"/>
<path d="M299.448 104.438C299.162 104.439 298.887 104.552 298.685 104.755C298.483 104.957 298.369 105.231 298.369 105.517V117.363C298.369 117.649 298.483 117.924 298.685 118.126C298.887 118.328 299.162 118.442 299.448 118.442H320.296C320.582 118.442 320.856 118.328 321.058 118.126C321.261 117.924 321.375 117.649 321.375 117.363V105.517C321.375 105.231 321.261 104.957 321.058 104.755C320.856 104.552 320.582 104.439 320.296 104.438H299.448Z" fill="#868686"/>
<path d="M281.77 297.75H374.77C378.483 297.75 382.044 299.225 384.669 301.85C387.295 304.476 388.77 308.037 388.77 311.75V311.75H267.77C267.77 308.037 269.245 304.476 271.87 301.85C274.496 299.225 278.057 297.75 281.77 297.75V297.75Z" fill="#2A2A2A"/>
<path d="M381.269 296.75C380.725 296.752 380.185 296.844 379.67 297.022C379.494 296.312 379.063 295.691 378.461 295.277C377.858 294.862 377.124 294.683 376.398 294.772C375.671 294.862 375.003 295.214 374.519 295.763C374.035 296.311 373.768 297.018 373.769 297.75C373.769 297.765 373.773 297.779 373.773 297.794C373.398 297.829 373.028 297.906 372.67 298.022C372.569 297.618 372.384 297.24 372.129 296.911C371.874 296.582 371.553 296.31 371.187 296.111C372.148 295.58 372.909 294.748 373.351 293.743C373.914 293.799 374.481 293.735 375.017 293.557C375.553 293.379 376.046 293.09 376.463 292.708C376.88 292.327 377.211 291.862 377.437 291.344C377.662 290.825 377.775 290.266 377.769 289.701C377.763 289.136 377.639 288.578 377.403 288.065C377.167 287.551 376.826 287.093 376.402 286.721C375.977 286.348 375.479 286.069 374.939 285.901C374.399 285.734 373.83 285.683 373.269 285.75C372.725 285.752 372.185 285.844 371.67 286.022C371.578 285.629 371.407 285.259 371.167 284.933C370.928 284.608 370.625 284.335 370.277 284.13C369.929 283.925 369.543 283.792 369.142 283.74C368.742 283.689 368.335 283.719 367.946 283.829C367.557 283.938 367.195 284.126 366.881 284.38C366.566 284.634 366.307 284.948 366.118 285.305C365.928 285.662 365.813 286.054 365.78 286.456C365.746 286.859 365.794 287.264 365.921 287.647C365.802 287.73 365.69 287.824 365.578 287.917C365.013 287.43 364.278 287.186 363.534 287.236C363.149 286.132 362.388 285.198 361.384 284.598C360.38 283.999 359.197 283.771 358.043 283.956C356.888 284.141 355.835 284.727 355.069 285.61C354.302 286.493 353.871 287.618 353.85 288.787C353.449 288.819 353.053 288.898 352.67 289.022C352.627 288.853 352.569 288.688 352.498 288.529C352.893 288.18 353.21 287.753 353.429 287.274C353.648 286.796 353.764 286.276 353.769 285.75C353.699 284.624 353.187 283.572 352.344 282.823C351.501 282.073 350.396 281.688 349.269 281.75C348.725 281.752 348.185 281.844 347.67 282.022C347.578 281.629 347.407 281.259 347.167 280.933C346.928 280.608 346.625 280.335 346.277 280.13C345.929 279.925 345.543 279.792 345.142 279.74C344.742 279.689 344.335 279.719 343.946 279.829C343.557 279.938 343.195 280.126 342.881 280.38C342.566 280.634 342.307 280.948 342.118 281.305C341.928 281.662 341.813 282.054 341.78 282.456C341.746 282.859 341.794 283.264 341.921 283.647C341.292 284.085 340.771 284.661 340.401 285.332C340.03 286.003 339.819 286.751 339.784 287.516C339.742 287.554 339.693 287.585 339.653 287.624C339.728 287.339 339.767 287.045 339.769 286.75C339.699 285.624 339.187 284.572 338.344 283.823C337.501 283.073 336.396 282.688 335.269 282.75C334.725 282.752 334.185 282.844 333.67 283.022C333.578 282.629 333.407 282.259 333.167 281.933C332.928 281.608 332.625 281.335 332.277 281.13C331.929 280.925 331.543 280.792 331.142 280.74C330.742 280.689 330.335 280.719 329.946 280.829C329.557 280.938 329.195 281.126 328.881 281.38C328.566 281.634 328.307 281.948 328.118 282.305C327.928 282.662 327.813 283.054 327.78 283.456C327.746 283.859 327.794 284.264 327.921 284.647C327.257 285.106 326.715 285.719 326.34 286.434C325.965 287.148 325.769 287.943 325.769 288.75C325.769 289.557 325.965 290.352 326.34 291.066C326.715 291.781 327.257 292.394 327.921 292.853C327.719 293.434 327.719 294.066 327.921 294.647C327.42 294.997 326.987 295.435 326.642 295.939C326.457 295.267 326.042 294.682 325.47 294.284C324.898 293.886 324.205 293.701 323.511 293.761C322.817 293.821 322.166 294.122 321.67 294.612C321.175 295.102 320.867 295.751 320.8 296.444C320.399 296.209 319.966 296.034 319.515 295.925C320.325 295.39 320.962 294.632 321.351 293.743C321.913 293.799 322.481 293.735 323.017 293.557C323.553 293.379 324.046 293.09 324.463 292.708C324.88 292.327 325.211 291.862 325.436 291.344C325.662 290.825 325.775 290.266 325.769 289.701C325.763 289.136 325.639 288.578 325.403 288.065C325.167 287.551 324.826 287.093 324.401 286.721C323.977 286.348 323.479 286.069 322.939 285.901C322.399 285.734 321.83 285.683 321.269 285.75C320.725 285.752 320.185 285.844 319.67 286.022C319.578 285.629 319.407 285.259 319.167 284.933C318.928 284.608 318.625 284.335 318.277 284.13C317.929 283.925 317.543 283.792 317.142 283.74C316.742 283.689 316.335 283.719 315.946 283.829C315.557 283.938 315.195 284.126 314.881 284.38C314.566 284.634 314.307 284.948 314.118 285.305C313.928 285.662 313.813 286.054 313.78 286.456C313.746 286.859 313.794 287.264 313.921 287.647C313.857 287.692 313.799 287.744 313.737 287.792C313.581 287.777 313.43 287.75 313.269 287.75C312.725 287.752 312.185 287.844 311.67 288.022C311.651 287.947 311.62 287.877 311.596 287.804C311.693 287.359 311.685 286.897 311.573 286.455C311.461 286.014 311.249 285.604 310.952 285.258C310.655 284.912 310.283 284.64 309.863 284.463C309.443 284.286 308.988 284.208 308.533 284.236C308.273 283.511 307.848 282.856 307.293 282.322C306.737 281.788 306.066 281.39 305.331 281.159C304.596 280.928 303.817 280.87 303.056 280.99C302.295 281.11 301.572 281.404 300.943 281.849C300.315 282.295 299.798 282.88 299.433 283.558C299.068 284.237 298.865 284.991 298.84 285.761C298.814 286.531 298.968 287.296 299.287 287.997C299.607 288.698 300.085 289.316 300.683 289.802C300.339 289.841 299.999 289.915 299.67 290.022C299.552 289.535 299.312 289.085 298.973 288.715C298.635 288.345 298.208 288.067 297.732 287.906C297.257 287.746 296.749 287.708 296.255 287.797C295.761 287.886 295.298 288.098 294.908 288.414C294.463 287.885 293.905 287.461 293.276 287.173C292.646 286.885 291.961 286.741 291.269 286.75C290.725 286.752 290.185 286.844 289.67 287.022C289.578 286.629 289.407 286.259 289.167 285.933C288.928 285.608 288.625 285.335 288.277 285.13C287.929 284.925 287.543 284.792 287.142 284.74C286.742 284.689 286.335 284.719 285.946 284.829C285.557 284.938 285.195 285.126 284.88 285.38C284.566 285.634 284.307 285.948 284.117 286.305C283.928 286.662 283.813 287.054 283.78 287.456C283.746 287.859 283.794 288.264 283.921 288.647C283.257 289.106 282.715 289.719 282.34 290.434C281.965 291.148 281.769 291.943 281.769 292.75C281.769 292.765 281.774 292.78 281.774 292.795C281.065 292.688 280.34 292.766 279.67 293.022C279.578 292.629 279.407 292.259 279.167 291.933C278.928 291.608 278.625 291.335 278.277 291.13C277.929 290.925 277.543 290.792 277.142 290.74C276.741 290.689 276.335 290.719 275.946 290.829C275.557 290.938 275.195 291.126 274.88 291.38C274.566 291.634 274.307 291.948 274.117 292.305C273.928 292.662 273.813 293.054 273.779 293.456C273.746 293.859 273.794 294.264 273.921 294.647C272.957 295.3 272.252 296.27 271.929 297.389C271.606 298.508 271.685 299.705 272.153 300.771C272.621 301.838 273.448 302.707 274.49 303.227C275.532 303.746 276.723 303.885 277.857 303.617C278.037 304.66 278.545 305.619 279.307 306.354C280.07 307.089 281.046 307.562 282.095 307.705C283.144 307.847 284.212 307.652 285.142 307.147C286.073 306.642 286.818 305.853 287.271 304.896C290.872 305.364 294.528 305.2 298.073 304.409C298.404 305.357 299.012 306.182 299.82 306.777C300.627 307.373 301.596 307.711 302.598 307.747C303.601 307.783 304.591 307.515 305.439 306.979C306.287 306.443 306.953 305.664 307.351 304.743C308.08 304.728 308.797 304.551 309.449 304.224C309.905 305.03 310.577 305.693 311.39 306.138C312.203 306.583 313.124 306.793 314.049 306.743C314.974 306.693 315.867 306.385 316.627 305.855C317.387 305.325 317.984 304.594 318.351 303.743C319.463 303.532 320.614 303.717 321.604 304.267C322.594 304.816 323.36 305.695 323.769 306.75C324.438 305.834 325.298 305.076 326.29 304.527C327.282 303.978 328.382 303.652 329.513 303.571C330.518 303.851 331.586 303.802 332.561 303.429C333.536 303.057 334.365 302.382 334.928 301.503C334.613 302.721 334.77 304.013 335.366 305.12C335.962 306.228 336.953 307.07 338.142 307.479C339.332 307.887 340.631 307.833 341.782 307.326C342.933 306.819 343.85 305.896 344.351 304.743C345.08 304.728 345.797 304.551 346.449 304.224C346.905 305.03 347.577 305.693 348.39 306.138C349.203 306.583 350.124 306.793 351.049 306.743C351.974 306.693 352.867 306.385 353.627 305.855C354.387 305.325 354.984 304.594 355.351 303.743C356.08 303.728 356.797 303.551 357.449 303.224C357.8 303.85 358.284 304.393 358.867 304.813C359.449 305.234 360.116 305.523 360.822 305.66C361.527 305.796 362.254 305.778 362.952 305.605C363.649 305.433 364.301 305.11 364.861 304.66C365.035 305.617 365.485 306.502 366.155 307.206C366.826 307.91 367.688 308.402 368.635 308.621C369.582 308.841 370.573 308.778 371.485 308.442C372.397 308.105 373.19 307.508 373.767 306.726C374.367 307.186 375.065 307.502 375.806 307.652C376.547 307.801 377.312 307.78 378.044 307.588C378.776 307.397 379.454 307.041 380.027 306.548C380.6 306.055 381.053 305.437 381.351 304.743C381.913 304.798 382.481 304.735 383.017 304.557C383.553 304.379 384.046 304.09 384.463 303.708C384.88 303.327 385.211 302.862 385.436 302.344C385.662 301.825 385.775 301.266 385.769 300.701C385.763 300.136 385.639 299.578 385.403 299.065C385.167 298.551 384.826 298.093 384.401 297.72C383.977 297.348 383.478 297.069 382.939 296.901C382.399 296.734 381.83 296.683 381.269 296.75L381.269 296.75ZM291.891 294.686C291.886 294.71 291.882 294.735 291.877 294.759C291.841 294.758 291.806 294.75 291.769 294.75C291.62 294.754 291.471 294.769 291.324 294.795C291.332 294.777 291.343 294.761 291.351 294.743C291.532 294.734 291.712 294.715 291.891 294.686V294.686ZM333.67 293.022C333.656 292.964 333.631 292.91 333.613 292.854C334.376 292.324 334.978 291.594 335.351 290.743C336.009 290.739 336.658 290.597 337.257 290.326C337.856 290.055 338.392 289.66 338.828 289.168C338.79 289.36 338.77 289.555 338.769 289.75C338.774 290.055 338.825 290.358 338.921 290.647C338.063 291.246 337.413 292.098 337.062 293.084C335.975 292.661 334.772 292.639 333.67 293.022V293.022ZM363.621 293.395C363.619 293.334 363.626 293.271 363.622 293.21C363.75 293.209 363.877 293.201 364.003 293.184C364.197 293.831 364.521 294.431 364.956 294.949C364.862 294.975 364.762 294.991 364.67 295.022C364.509 294.379 364.14 293.807 363.621 293.395V293.395Z" fill="#F9A825"/>
<path d="M277.843 302.75C276.424 302.75 275.021 303.039 273.718 303.599C272.415 304.159 271.239 304.979 270.263 306.009C269.288 307.038 268.532 308.256 268.043 309.587C267.553 310.919 267.34 312.336 267.416 313.752L274.187 406.867C274.33 409.536 275.491 412.049 277.431 413.887C279.371 415.726 281.942 416.75 284.614 416.75H371.925C374.597 416.75 377.168 415.726 379.108 413.887C381.048 412.049 382.209 409.536 382.351 406.867L389.123 313.752C389.199 312.336 388.986 310.919 388.496 309.587C388.007 308.256 387.251 307.038 386.275 306.009C385.3 304.979 384.124 304.159 382.821 303.599C381.518 303.039 380.115 302.75 378.696 302.75H277.843Z" fill="#2A2A2A"/>
<path d="M288.77 302.75H282.77V416.75H288.77V302.75Z" fill="#EF473A"/>
<path d="M305.77 302.75H299.77V416.75H305.77V302.75Z" fill="#EF473A"/>
<path d="M322.77 302.75H316.77V416.75H322.77V302.75Z" fill="#EF473A"/>
<path d="M339.77 302.75H333.77V416.75H339.77V302.75Z" fill="#EF473A"/>
<path d="M356.77 302.75H350.77V416.75H356.77V302.75Z" fill="#EF473A"/>
<path d="M373.77 302.75H367.77V416.75H373.77V302.75Z" fill="#EF473A"/>
<path d="M367.755 359.257L348.319 370.595C348.319 370.595 301.347 409.468 333.741 415.947C366.136 422.426 374.234 388.412 374.234 388.412L385.572 375.454L367.755 359.257Z" fill="#FFB8B8"/>
<path d="M275.431 351.158L294.868 362.496C294.868 362.496 341.84 401.37 309.446 407.849C277.051 414.327 268.953 380.313 268.953 380.313L257.615 367.356L275.431 351.158Z" fill="#FFB8B8"/>
<path d="M393.671 197.285L414.727 198.905C414.727 198.905 430.924 213.482 429.305 232.919C429.305 232.919 443.882 275.032 440.643 292.849C440.643 292.849 443.882 322.003 439.023 333.342C434.164 344.68 393.671 388.412 393.671 388.412C393.671 388.412 356.417 359.257 358.037 357.637L406.629 309.046L382.333 276.651L393.671 197.285Z" fill="#E6E6E6"/>
<path d="M255.995 185.947L255.185 186.757C255.185 186.757 218.741 202.144 220.361 221.581C220.361 221.581 205.784 263.694 209.023 281.511C209.023 281.511 205.784 310.665 210.643 322.004C215.502 333.342 255.995 377.074 255.995 377.074C255.995 377.074 293.248 347.919 291.629 346.299L243.037 297.708L267.333 265.313L255.995 185.947Z" fill="#E6E6E6"/>
<path d="M644.71 64.94V86H639.58V73.37L634.87 86H630.73L625.99 73.34V86H620.86V64.94H626.92L632.83 79.52L638.68 64.94H644.71Z" fill="white"/>
<circle cx="633.5" cy="75.5" r="33.5" stroke="url(#paint0_linear_16_2)" stroke-width="4"/>
<circle cx="633.5" cy="75.5" r="25.1915" stroke="url(#paint1_linear_16_2)" stroke-width="4"/>
<path d="M8.572 658.632H17.968V660H6.952V634.728H8.572V658.632ZM30.2513 660.288C28.4273 660.288 26.7833 659.88 25.3193 659.064C23.8553 658.248 22.7033 657.084 21.8633 655.572C21.0473 654.036 20.6393 652.248 20.6393 650.208C20.6393 648.192 21.0593 646.428 21.8993 644.916C22.7393 643.38 23.8913 642.216 25.3553 641.424C26.8433 640.608 28.4993 640.2 30.3233 640.2C32.1473 640.2 33.7913 640.608 35.2553 641.424C36.7193 642.216 37.8593 643.368 38.6753 644.88C39.5153 646.392 39.9353 648.168 39.9353 650.208C39.9353 652.248 39.5153 654.036 38.6753 655.572C37.8353 657.084 36.6713 658.248 35.1833 659.064C33.7193 659.88 32.0753 660.288 30.2513 660.288ZM30.2513 658.848C31.6673 658.848 32.9873 658.536 34.2113 657.912C35.4593 657.264 36.4553 656.292 37.1993 654.996C37.9433 653.7 38.3153 652.104 38.3153 650.208C38.3153 648.336 37.9433 646.752 37.1993 645.456C36.4553 644.16 35.4713 643.2 34.2473 642.576C33.0233 641.928 31.7033 641.604 30.2873 641.604C28.8713 641.604 27.5513 641.928 26.3273 642.576C25.1273 643.2 24.1553 644.16 23.4113 645.456C22.6673 646.752 22.2953 648.336 22.2953 650.208C22.2953 652.104 22.6553 653.7 23.3753 654.996C24.1193 656.292 25.0913 657.264 26.2913 657.912C27.5153 658.536 28.8353 658.848 30.2513 658.848ZM53.4544 660.288C51.6304 660.288 49.9864 659.88 48.5224 659.064C47.0584 658.248 45.9064 657.084 45.0664 655.572C44.2504 654.036 43.8424 652.248 43.8424 650.208C43.8424 648.192 44.2624 646.428 45.1024 644.916C45.9424 643.38 47.0944 642.216 48.5584 641.424C50.0464 640.608 51.7024 640.2 53.5264 640.2C55.3504 640.2 56.9944 640.608 58.4584 641.424C59.9224 642.216 61.0624 643.368 61.8784 644.88C62.7184 646.392 63.1384 648.168 63.1384 650.208C63.1384 652.248 62.7184 654.036 61.8784 655.572C61.0384 657.084 59.8744 658.248 58.3864 659.064C56.9224 659.88 55.2784 660.288 53.4544 660.288ZM53.4544 658.848C54.8704 658.848 56.1904 658.536 57.4144 657.912C58.6624 657.264 59.6584 656.292 60.4024 654.996C61.1464 653.7 61.5184 652.104 61.5184 650.208C61.5184 648.336 61.1464 646.752 60.4024 645.456C59.6584 644.16 58.6744 643.2 57.4504 642.576C56.2264 641.928 54.9064 641.604 53.4904 641.604C52.0744 641.604 50.7544 641.928 49.5304 642.576C48.3304 643.2 47.3584 644.16 46.6144 645.456C45.8704 646.752 45.4984 648.336 45.4984 650.208C45.4984 652.104 45.8584 653.7 46.5784 654.996C47.3224 656.292 48.2944 657.264 49.4944 657.912C50.7184 658.536 52.0384 658.848 53.4544 658.848ZM78.2056 660L69.6736 651.036V660H68.0536V633.36H69.6736V649.308L78.0616 640.452H80.3296L70.8616 650.172L80.4376 660H78.2056ZM84.5964 636.096C84.2124 636.096 83.8884 635.976 83.6244 635.736C83.3604 635.472 83.2284 635.124 83.2284 634.692C83.2284 634.284 83.3604 633.948 83.6244 633.684C83.8884 633.42 84.2124 633.288 84.5964 633.288C84.9804 633.288 85.3044 633.42 85.5684 633.684C85.8324 633.948 85.9644 634.284 85.9644 634.692C85.9644 635.124 85.8324 635.472 85.5684 635.736C85.3044 635.976 84.9804 636.096 84.5964 636.096ZM85.3884 640.452V660H83.7684V640.452H85.3884ZM100.147 640.056C102.475 640.056 104.371 640.776 105.835 642.216C107.299 643.632 108.031 645.744 108.031 648.552V660H106.447V648.66C106.447 646.332 105.859 644.556 104.683 643.332C103.507 642.084 101.911 641.46 99.895 641.46C97.783 641.46 96.091 642.132 94.819 643.476C93.571 644.82 92.947 646.812 92.947 649.452V660H91.327V640.452H92.947V644.592C93.499 643.128 94.411 642.012 95.683 641.244C96.979 640.452 98.467 640.056 100.147 640.056ZM122.181 640.2C124.245 640.2 125.997 640.704 127.437 641.712C128.877 642.696 129.885 643.968 130.461 645.528V640.452H132.081V660.612C132.081 662.412 131.685 663.984 130.893 665.328C130.101 666.696 129.033 667.74 127.689 668.46C126.345 669.204 124.845 669.576 123.189 669.576C120.741 669.576 118.713 668.988 117.105 667.812C115.497 666.636 114.441 665.052 113.937 663.06H115.557C116.037 664.62 116.937 665.856 118.257 666.768C119.577 667.704 121.221 668.172 123.189 668.172C124.557 668.172 125.793 667.86 126.897 667.236C128.001 666.636 128.865 665.76 129.489 664.608C130.137 663.48 130.461 662.148 130.461 660.612V654.888C129.885 656.448 128.865 657.744 127.401 658.776C125.961 659.784 124.221 660.288 122.181 660.288C120.357 660.288 118.725 659.88 117.285 659.064C115.869 658.224 114.753 657.048 113.937 655.536C113.145 654 112.749 652.224 112.749 650.208C112.749 648.192 113.145 646.428 113.937 644.916C114.753 643.404 115.869 642.24 117.285 641.424C118.725 640.608 120.357 640.2 122.181 640.2ZM130.461 650.208C130.461 648.504 130.101 647.004 129.381 645.708C128.685 644.388 127.725 643.38 126.501 642.684C125.277 641.964 123.909 641.604 122.397 641.604C120.813 641.604 119.421 641.952 118.221 642.648C117.021 643.32 116.085 644.304 115.413 645.6C114.741 646.896 114.405 648.432 114.405 650.208C114.405 651.984 114.741 653.52 115.413 654.816C116.085 656.112 117.021 657.108 118.221 657.804C119.445 658.5 120.837 658.848 122.397 658.848C123.909 658.848 125.277 658.5 126.501 657.804C127.749 657.084 128.721 656.076 129.417 654.78C130.113 653.46 130.461 651.936 130.461 650.208ZM155.592 641.892H150.516V660H148.896V641.892H145.944V640.452H148.896V639.084C148.896 637.044 149.412 635.532 150.444 634.548C151.476 633.54 153.168 633.036 155.52 633.036V634.476C153.648 634.476 152.34 634.836 151.596 635.556C150.876 636.276 150.516 637.452 150.516 639.084V640.452H155.592V641.892ZM168.345 660.288C166.521 660.288 164.877 659.88 163.413 659.064C161.949 658.248 160.797 657.084 159.957 655.572C159.141 654.036 158.733 652.248 158.733 650.208C158.733 648.192 159.153 646.428 159.993 644.916C160.833 643.38 161.985 642.216 163.449 641.424C164.937 640.608 166.593 640.2 168.417 640.2C170.241 640.2 171.885 640.608 173.349 641.424C174.813 642.216 175.953 643.368 176.769 644.88C177.609 646.392 178.029 648.168 178.029 650.208C178.029 652.248 177.609 654.036 176.769 655.572C175.929 657.084 174.765 658.248 173.277 659.064C171.813 659.88 170.169 660.288 168.345 660.288ZM168.345 658.848C169.761 658.848 171.081 658.536 172.305 657.912C173.553 657.264 174.549 656.292 175.293 654.996C176.037 653.7 176.409 652.104 176.409 650.208C176.409 648.336 176.037 646.752 175.293 645.456C174.549 644.16 173.565 643.2 172.341 642.576C171.117 641.928 169.797 641.604 168.381 641.604C166.965 641.604 165.645 641.928 164.421 642.576C163.221 643.2 162.249 644.16 161.505 645.456C160.761 646.752 160.389 648.336 160.389 650.208C160.389 652.104 160.749 653.7 161.469 654.996C162.213 656.292 163.185 657.264 164.385 657.912C165.609 658.536 166.929 658.848 168.345 658.848ZM184.564 644.484C185.044 643.044 185.896 641.952 187.12 641.208C188.344 640.44 189.904 640.056 191.8 640.056V641.748H191.26C189.34 641.748 187.744 642.3 186.472 643.404C185.2 644.484 184.564 646.26 184.564 648.732V660H182.944V640.452H184.564V644.484ZM204.682 650.208C204.682 648.192 205.078 646.428 205.87 644.916C206.686 643.404 207.802 642.24 209.218 641.424C210.658 640.608 212.29 640.2 214.114 640.2C216.178 640.2 217.93 640.704 219.37 641.712C220.81 642.72 221.818 644.004 222.394 645.564V640.452H224.014V660H222.394V654.852C221.818 656.436 220.798 657.744 219.334 658.776C217.894 659.784 216.154 660.288 214.114 660.288C212.29 660.288 210.658 659.88 209.218 659.064C207.802 658.224 206.686 657.048 205.87 655.536C205.078 654 204.682 652.224 204.682 650.208ZM222.394 650.208C222.394 648.504 222.034 647.004 221.314 645.708C220.618 644.388 219.658 643.38 218.434 642.684C217.21 641.964 215.842 641.604 214.33 641.604C212.746 641.604 211.354 641.952 210.154 642.648C208.954 643.32 208.018 644.304 207.346 645.6C206.674 646.896 206.338 648.432 206.338 650.208C206.338 651.984 206.674 653.52 207.346 654.816C208.018 656.112 208.954 657.108 210.154 657.804C211.378 658.5 212.77 658.848 214.33 658.848C215.842 658.848 217.21 658.5 218.434 657.804C219.682 657.084 220.654 656.076 221.35 654.78C222.046 653.46 222.394 651.936 222.394 650.208ZM263.833 639.84C265.393 639.84 266.785 640.164 268.009 640.812C269.257 641.46 270.229 642.42 270.925 643.692C271.645 644.964 272.005 646.5 272.005 648.3V660H267.937V648.912C267.937 647.136 267.493 645.78 266.605 644.844C265.717 643.884 264.505 643.404 262.969 643.404C261.433 643.404 260.209 643.884 259.297 644.844C258.409 645.78 257.965 647.136 257.965 648.912V660H253.897V648.912C253.897 647.136 253.453 645.78 252.565 644.844C251.677 643.884 250.465 643.404 248.929 643.404C247.393 643.404 246.169 643.884 245.257 644.844C244.369 645.78 243.925 647.136 243.925 648.912V660H239.821V640.164H243.925V642.432C244.597 641.616 245.449 640.98 246.481 640.524C247.513 640.068 248.617 639.84 249.793 639.84C251.377 639.84 252.793 640.176 254.041 640.848C255.289 641.52 256.249 642.492 256.921 643.764C257.521 642.564 258.457 641.616 259.729 640.92C261.001 640.2 262.369 639.84 263.833 639.84ZM285.831 660.324C283.959 660.324 282.267 659.904 280.755 659.064C279.243 658.2 278.055 657 277.191 655.464C276.327 653.904 275.895 652.104 275.895 650.064C275.895 648.048 276.339 646.26 277.227 644.7C278.115 643.14 279.327 641.94 280.863 641.1C282.399 640.26 284.115 639.84 286.011 639.84C287.907 639.84 289.623 640.26 291.159 641.1C292.695 641.94 293.907 643.14 294.795 644.7C295.683 646.26 296.127 648.048 296.127 650.064C296.127 652.08 295.671 653.868 294.759 655.428C293.847 656.988 292.599 658.2 291.015 659.064C289.455 659.904 287.727 660.324 285.831 660.324ZM285.831 656.76C286.887 656.76 287.871 656.508 288.783 656.004C289.719 655.5 290.475 654.744 291.051 653.736C291.627 652.728 291.915 651.504 291.915 650.064C291.915 648.624 291.639 647.412 291.087 646.428C290.535 645.42 289.803 644.664 288.891 644.16C287.979 643.656 286.995 643.404 285.939 643.404C284.883 643.404 283.899 643.656 282.987 644.16C282.099 644.664 281.391 645.42 280.863 646.428C280.335 647.412 280.071 648.624 280.071 650.064C280.071 652.2 280.611 653.856 281.691 655.032C282.795 656.184 284.175 656.76 285.831 656.76ZM307.852 656.328L313.468 640.164H317.824L310.264 660H305.368L297.844 640.164H302.236L307.852 656.328ZM323.015 637.536C322.271 637.536 321.647 637.284 321.143 636.78C320.639 636.276 320.387 635.652 320.387 634.908C320.387 634.164 320.639 633.54 321.143 633.036C321.647 632.532 322.271 632.28 323.015 632.28C323.735 632.28 324.347 632.532 324.851 633.036C325.355 633.54 325.607 634.164 325.607 634.908C325.607 635.652 325.355 636.276 324.851 636.78C324.347 637.284 323.735 637.536 323.015 637.536ZM325.031 640.164V660H320.927V640.164H325.031ZM348.599 649.596C348.599 650.34 348.551 651.012 348.455 651.612H333.299C333.419 653.196 334.007 654.468 335.063 655.428C336.119 656.388 337.415 656.868 338.951 656.868C341.159 656.868 342.719 655.944 343.631 654.096H348.059C347.459 655.92 346.367 657.42 344.783 658.596C343.223 659.748 341.279 660.324 338.951 660.324C337.055 660.324 335.351 659.904 333.839 659.064C332.351 658.2 331.175 657 330.311 655.464C329.471 653.904 329.051 652.104 329.051 650.064C329.051 648.024 329.459 646.236 330.275 644.7C331.115 643.14 332.279 641.94 333.767 641.1C335.279 640.26 337.007 639.84 338.951 639.84C340.823 639.84 342.491 640.248 343.955 641.064C345.419 641.88 346.559 643.032 347.375 644.52C348.191 645.984 348.599 647.676 348.599 649.596ZM344.315 648.3C344.291 646.788 343.751 645.576 342.695 644.664C341.639 643.752 340.331 643.296 338.771 643.296C337.355 643.296 336.143 643.752 335.135 644.664C334.127 645.552 333.527 646.764 333.335 648.3H344.315ZM358.614 634.476C360.102 634.476 361.422 634.776 362.574 635.376C363.75 635.976 364.662 636.816 365.31 637.896C365.982 638.976 366.318 640.236 366.318 641.676C366.318 646.74 363.258 649.296 357.138 649.344L357.066 653.952H355.698L355.59 648.12H356.31C358.878 648.12 360.93 647.676 362.466 646.788C364.002 645.9 364.77 644.196 364.77 641.676C364.77 639.9 364.206 638.484 363.078 637.428C361.95 636.372 360.474 635.844 358.65 635.844C356.802 635.844 355.326 636.348 354.222 637.356C353.142 638.364 352.602 639.72 352.602 641.424H351.054C351.054 640.008 351.378 638.772 352.026 637.716C352.674 636.66 353.574 635.856 354.726 635.304C355.878 634.752 357.174 634.476 358.614 634.476ZM356.382 660.108C355.974 660.108 355.638 659.976 355.374 659.712C355.11 659.448 354.978 659.112 354.978 658.704C354.978 658.296 355.11 657.96 355.374 657.696C355.638 657.432 355.974 657.3 356.382 657.3C356.766 657.3 357.09 657.432 357.354 657.696C357.618 657.96 357.75 658.296 357.75 658.704C357.75 659.112 357.618 659.448 357.354 659.712C357.09 659.976 356.766 660.108 356.382 660.108ZM388.252 660.252C386.62 660.252 385.192 659.964 383.968 659.388C382.744 658.812 381.784 658.032 381.088 657.048C380.416 656.064 380.032 654.972 379.936 653.772H381.628C381.82 655.092 382.432 656.268 383.464 657.3C384.52 658.332 386.116 658.848 388.252 658.848C389.5 658.848 390.58 658.62 391.492 658.164C392.428 657.708 393.148 657.084 393.652 656.292C394.156 655.5 394.408 654.624 394.408 653.664C394.408 652.44 394.108 651.468 393.508 650.748C392.932 650.028 392.2 649.488 391.312 649.128C390.448 648.768 389.272 648.384 387.784 647.976C386.152 647.544 384.832 647.112 383.824 646.68C382.84 646.248 382 645.588 381.304 644.7C380.632 643.788 380.296 642.552 380.296 640.992C380.296 639.792 380.608 638.7 381.232 637.716C381.88 636.708 382.792 635.916 383.968 635.34C385.144 634.764 386.5 634.476 388.036 634.476C390.268 634.476 392.068 635.028 393.436 636.132C394.804 637.236 395.62 638.592 395.884 640.2H394.156C394.012 639.552 393.688 638.892 393.184 638.22C392.704 637.548 392.008 636.996 391.096 636.564C390.208 636.108 389.14 635.88 387.892 635.88C386.212 635.88 384.796 636.348 383.644 637.284C382.492 638.196 381.916 639.42 381.916 640.956C381.916 642.18 382.216 643.164 382.816 643.908C383.416 644.628 384.148 645.18 385.012 645.564C385.9 645.924 387.088 646.296 388.576 646.68C390.232 647.136 391.54 647.58 392.5 648.012C393.484 648.42 394.312 649.08 394.984 649.992C395.68 650.88 396.028 652.092 396.028 653.628C396.028 654.756 395.728 655.824 395.128 656.832C394.528 657.84 393.64 658.668 392.464 659.316C391.312 659.94 389.908 660.252 388.252 660.252ZM403.29 641.856V654.78C403.29 656.22 403.554 657.216 404.082 657.768C404.61 658.296 405.546 658.56 406.89 658.56H409.086V660H406.638C404.934 660 403.674 659.604 402.858 658.812C402.066 657.996 401.67 656.652 401.67 654.78V641.856H398.718V640.452H401.67V635.484H403.29V640.452H409.086V641.856H403.29ZM412.35 650.208C412.35 648.192 412.746 646.428 413.538 644.916C414.354 643.404 415.47 642.24 416.886 641.424C418.326 640.608 419.958 640.2 421.782 640.2C423.846 640.2 425.598 640.704 427.038 641.712C428.478 642.72 429.486 644.004 430.062 645.564V640.452H431.682V660H430.062V654.852C429.486 656.436 428.466 657.744 427.002 658.776C425.562 659.784 423.822 660.288 421.782 660.288C419.958 660.288 418.326 659.88 416.886 659.064C415.47 658.224 414.354 657.048 413.538 655.536C412.746 654 412.35 652.224 412.35 650.208ZM430.062 650.208C430.062 648.504 429.702 647.004 428.982 645.708C428.286 644.388 427.326 643.38 426.102 642.684C424.878 641.964 423.51 641.604 421.998 641.604C420.414 641.604 419.022 641.952 417.822 642.648C416.622 643.32 415.686 644.304 415.014 645.6C414.342 646.896 414.006 648.432 414.006 650.208C414.006 651.984 414.342 653.52 415.014 654.816C415.686 656.112 416.622 657.108 417.822 657.804C419.046 658.5 420.438 658.848 421.998 658.848C423.51 658.848 424.878 658.5 426.102 657.804C427.35 657.084 428.322 656.076 429.018 654.78C429.714 653.46 430.062 651.936 430.062 650.208ZM439.201 644.484C439.681 643.044 440.533 641.952 441.757 641.208C442.981 640.44 444.541 640.056 446.437 640.056V641.748H445.897C443.977 641.748 442.381 642.3 441.109 643.404C439.837 644.484 439.201 646.26 439.201 648.732V660H437.581V640.452H439.201V644.484ZM452.579 641.856V654.78C452.579 656.22 452.843 657.216 453.371 657.768C453.899 658.296 454.835 658.56 456.179 658.56H458.375V660H455.927C454.223 660 452.963 659.604 452.147 658.812C451.355 657.996 450.959 656.652 450.959 654.78V641.856H448.007V640.452H450.959V635.484H452.579V640.452H458.375V641.856H452.579ZM475.219 641.856V654.78C475.219 656.22 475.483 657.216 476.011 657.768C476.539 658.296 477.475 658.56 478.819 658.56H481.015V660H478.567C476.863 660 475.603 659.604 474.787 658.812C473.995 657.996 473.599 656.652 473.599 654.78V641.856H470.647V640.452H473.599V635.484H475.219V640.452H481.015V641.856H475.219ZM500.552 640.452L489.176 669.18H487.52L491.156 660L482.948 640.452H484.712L492.056 658.2L498.896 640.452H500.552ZM505.787 645.6C506.339 644.016 507.335 642.72 508.775 641.712C510.239 640.704 512.003 640.2 514.067 640.2C515.891 640.2 517.511 640.608 518.927 641.424C520.367 642.24 521.483 643.404 522.275 644.916C523.091 646.428 523.499 648.192 523.499 650.208C523.499 652.224 523.091 654 522.275 655.536C521.483 657.048 520.367 658.224 518.927 659.064C517.511 659.88 515.891 660.288 514.067 660.288C512.027 660.288 510.275 659.784 508.811 658.776C507.371 657.744 506.363 656.448 505.787 654.888V669.216H504.167V640.452H505.787V645.6ZM521.843 650.208C521.843 648.432 521.507 646.896 520.835 645.6C520.163 644.304 519.215 643.32 517.991 642.648C516.791 641.952 515.399 641.604 513.815 641.604C512.303 641.604 510.935 641.964 509.711 642.684C508.487 643.38 507.527 644.388 506.831 645.708C506.135 647.004 505.787 648.504 505.787 650.208C505.787 651.936 506.135 653.46 506.831 654.78C507.527 656.076 508.487 657.084 509.711 657.804C510.935 658.5 512.303 658.848 513.815 658.848C515.399 658.848 516.791 658.5 517.991 657.804C519.215 657.108 520.163 656.112 520.835 654.816C521.507 653.52 521.843 651.984 521.843 650.208ZM529.218 636.096C528.834 636.096 528.51 635.976 528.246 635.736C527.982 635.472 527.85 635.124 527.85 634.692C527.85 634.284 527.982 633.948 528.246 633.684C528.51 633.42 528.834 633.288 529.218 633.288C529.602 633.288 529.926 633.42 530.189 633.684C530.454 633.948 530.586 634.284 530.586 634.692C530.586 635.124 530.454 635.472 530.189 635.736C529.926 635.976 529.602 636.096 529.218 636.096ZM530.01 640.452V660H528.39V640.452H530.01ZM544.768 640.056C547.096 640.056 548.992 640.776 550.456 642.216C551.92 643.632 552.652 645.744 552.652 648.552V660H551.068V648.66C551.068 646.332 550.48 644.556 549.304 643.332C548.128 642.084 546.532 641.46 544.516 641.46C542.404 641.46 540.712 642.132 539.44 643.476C538.192 644.82 537.568 646.812 537.568 649.452V660H535.948V640.452H537.568V644.592C538.12 643.128 539.032 642.012 540.304 641.244C541.6 640.452 543.088 640.056 544.768 640.056ZM566.802 640.2C568.866 640.2 570.618 640.704 572.058 641.712C573.498 642.696 574.506 643.968 575.082 645.528V640.452H576.702V660.612C576.702 662.412 576.306 663.984 575.514 665.328C574.722 666.696 573.654 667.74 572.31 668.46C570.966 669.204 569.466 669.576 567.81 669.576C565.362 669.576 563.334 668.988 561.726 667.812C560.118 666.636 559.062 665.052 558.558 663.06H560.178C560.658 664.62 561.558 665.856 562.878 666.768C564.198 667.704 565.842 668.172 567.81 668.172C569.178 668.172 570.414 667.86 571.518 667.236C572.622 666.636 573.486 665.76 574.11 664.608C574.758 663.48 575.082 662.148 575.082 660.612V654.888C574.506 656.448 573.486 657.744 572.022 658.776C570.582 659.784 568.842 660.288 566.802 660.288C564.978 660.288 563.346 659.88 561.906 659.064C560.49 658.224 559.374 657.048 558.558 655.536C557.766 654 557.37 652.224 557.37 650.208C557.37 648.192 557.766 646.428 558.558 644.916C559.374 643.404 560.49 642.24 561.906 641.424C563.346 640.608 564.978 640.2 566.802 640.2ZM575.082 650.208C575.082 648.504 574.722 647.004 574.002 645.708C573.306 644.388 572.346 643.38 571.122 642.684C569.898 641.964 568.53 641.604 567.018 641.604C565.434 641.604 564.042 641.952 562.842 642.648C561.642 643.32 560.706 644.304 560.034 645.6C559.362 646.896 559.026 648.432 559.026 650.208C559.026 651.984 559.362 653.52 560.034 654.816C560.706 656.112 561.642 657.108 562.842 657.804C564.066 658.5 565.458 658.848 567.018 658.848C568.53 658.848 569.898 658.5 571.122 657.804C572.37 657.084 573.342 656.076 574.038 654.78C574.734 653.46 575.082 651.936 575.082 650.208ZM584.976 634.728L584.796 653.844H583.392L583.176 634.728H584.976ZM584.184 660.108C583.776 660.108 583.44 659.976 583.176 659.712C582.912 659.448 582.78 659.112 582.78 658.704C582.78 658.296 582.912 657.96 583.176 657.696C583.44 657.432 583.776 657.3 584.184 657.3C584.568 657.3 584.892 657.432 585.156 657.696C585.42 657.96 585.552 658.296 585.552 658.704C585.552 659.112 585.42 659.448 585.156 659.712C584.892 659.976 584.568 660.108 584.184 660.108Z" fill="white"/>
</g>
<defs>
<linearGradient id="paint0_linear_16_2" x1="658.987" y1="46.3718" x2="611.654" y2="105.083" gradientUnits="userSpaceOnUse">
<stop stop-color="#EF473A"/>
<stop offset="1" stop-color="#CB2D3E"/>
</linearGradient>
<linearGradient id="paint1_linear_16_2" x1="653.022" y1="53.189" x2="616.767" y2="98.1595" gradientUnits="userSpaceOnUse">
<stop stop-color="#EF473A"/>
<stop offset="1" stop-color="#CB2D3E"/>
</linearGradient>
<clipPath id="clip0_16_2">
<rect width="719.769" height="687.25" fill="white"/>
</clipPath>
</defs>
</svg>
